<svg width="542" height="630" viewBox="0 0 542 630" fill="none" xmlns="http://www.w3.org/2000/svg">
    <rect width="542" height="630" rx="8" fill="white"/>
    <path fill-rule="evenodd" clip-rule="evenodd" d="M244.17 234.643C245.841 236.567 248.29 237.601 250.832 237.429L271.5 236.03L292.168 237.429C294.71 237.601 297.159 236.567 298.83 234.643C316.08 214.773 356.366 173.879 397.278 171.144C399.949 170.966 402.438 172.329 403.714 174.683C410.856 187.853 431.789 235.066 404.189 295.403C403.061 297.868 403.224 300.775 404.729 303.029C412.339 314.415 417.426 322.027 419.431 334.82C420.011 338.522 422.775 341.589 426.48 342.146L447.583 345.317C452.145 346.002 455.183 350.394 454.217 354.904L453.67 357.456C452.786 361.581 448.851 364.31 444.678 363.694L426.94 361.074C422.717 360.45 418.748 363.252 417.922 367.44L417.885 367.63C417.232 370.942 418.728 374.308 421.624 376.042L439.461 386.721C443.109 388.905 444.411 393.561 442.426 397.321L441.22 399.606C439.061 403.692 433.899 405.106 429.96 402.688L417.906 395.289C413.844 392.796 408.538 394.406 406.114 398.51C382.427 438.625 331.069 458.991 271.5 458.991C211.931 458.991 160.573 438.625 136.886 398.51C134.462 394.406 129.156 392.796 125.094 395.289L113.04 402.688C109.101 405.106 103.939 403.692 101.78 399.606L100.574 397.321C98.5885 393.561 99.8907 388.905 103.539 386.721L121.376 376.042C124.272 374.308 125.768 370.942 125.115 367.63L125.078 367.44C124.252 363.252 120.283 360.45 116.06 361.074L98.3218 363.694C94.1488 364.31 90.2141 361.581 89.3302 357.456L88.7834 354.904C87.8169 350.394 90.8552 346.002 95.4171 345.317L116.52 342.146C120.225 341.589 122.989 338.522 123.569 334.82C125.574 322.027 130.661 314.415 138.27 303.029C139.776 300.775 139.939 297.868 138.811 295.403C111.211 235.066 132.144 187.853 139.286 174.683C140.562 172.329 143.051 170.966 145.722 171.144C186.634 173.879 226.92 214.773 244.17 234.643ZM228.898 297.212C225.413 293.728 220.688 291.77 215.76 291.77C210.832 291.77 206.106 293.728 202.622 297.212C199.137 300.697 197.18 305.423 197.18 310.35C197.18 315.278 199.137 320.004 202.622 323.489C206.106 326.973 210.832 328.931 215.76 328.931C220.688 328.931 225.413 326.973 228.898 323.489C232.382 320.004 234.34 315.278 234.34 310.35C234.34 305.423 232.382 300.697 228.898 297.212ZM340.378 297.212C336.894 293.728 332.168 291.77 327.24 291.77C322.312 291.77 317.587 293.728 314.102 297.212C310.618 300.697 308.66 305.423 308.66 310.35C308.66 315.278 310.618 320.004 314.102 323.489C317.587 326.973 322.312 328.931 327.24 328.931C332.168 328.931 336.894 326.973 340.378 323.489C343.863 320.004 345.82 315.278 345.82 310.35C345.82 305.423 343.863 300.697 340.378 297.212ZM284.239 359.109C286.919 353.788 283.051 347.511 277.094 347.511H265.906C259.949 347.511 256.081 353.788 258.761 359.109L264.469 370.444C265.404 372.299 265.623 374.465 264.803 376.374C260.376 386.686 250.686 393.961 238.985 393.961C236.111 393.961 233.283 393.517 230.593 392.667C228.351 391.959 225.812 392.596 224.492 394.542C222.913 396.869 223.7 400.078 226.344 401.035C230.36 402.487 234.633 403.251 238.985 403.251C248.015 403.251 256.265 400.052 262.723 394.817C267.442 390.992 275.558 390.992 280.277 394.817C286.735 400.052 294.985 403.251 304.015 403.251C307.434 403.251 310.804 402.78 314.038 401.874C316.862 401.082 317.829 397.75 316.219 395.298C314.985 393.416 312.61 392.698 310.419 393.215C308.337 393.707 306.189 393.961 304.015 393.961C292.314 393.961 282.624 386.686 278.197 376.374C277.377 374.465 277.596 372.299 278.531 370.444L284.239 359.109Z" fill="#7F9AE6"/>
</svg>
