<svg width="542" height="630" viewBox="0 0 542 630" fill="none" xmlns="http://www.w3.org/2000/svg">
    <rect width="542" height="630" rx="8" fill="white"/>
    <path d="M378.362 171C350.753 171 332.867 175.799 321.704 180.429C319.458 181.361 316.926 181.335 314.709 180.335C301.722 174.482 287.061 171 270.587 171C254.113 171 239.451 174.482 226.465 180.335C224.248 181.335 221.716 181.361 219.469 180.429C208.307 175.799 190.421 171 162.812 171C108.925 171 73 314.986 73 350.983C73 365.155 94.3402 378.193 124.444 384.258C127.462 384.866 129.897 387.078 130.981 389.96C144.622 426.244 193.263 453.866 253.281 458.484C257.813 458.832 261.606 455.186 261.606 450.641V386.361C261.606 383.61 260.185 381.068 257.901 379.534C247.586 372.606 234.662 361.865 234.662 350.983C234.662 332.984 270.587 332.984 270.587 332.984C270.587 332.984 306.512 332.984 306.512 350.983C306.512 361.865 293.588 372.606 283.273 379.534C280.989 381.068 279.568 383.61 279.568 386.361V450.641C279.568 455.186 283.36 458.832 287.893 458.484C347.911 453.866 396.552 426.244 410.193 389.96C411.276 387.078 413.712 384.866 416.73 384.258C446.834 378.193 468.174 365.155 468.174 350.983C468.174 314.986 432.249 171 378.362 171ZM131.029 340.127C130.195 344.719 125.691 347.731 121.223 346.381C118.698 345.619 116.404 344.85 114.353 344.107C111.086 342.924 109.117 339.647 109.564 336.201C115.824 287.995 146.841 218.747 162.175 207.909C163.138 207.229 164.322 206.993 165.502 207.009C167.909 207.042 170.17 207.141 172.312 207.284C178.739 207.713 181.625 215.562 177.783 220.732C149.799 258.379 136.712 308.805 131.029 340.127ZM216.7 314.986C211.936 314.986 207.367 313.09 203.998 309.715C200.63 306.339 198.737 301.761 198.737 296.988C198.737 287.269 206.82 278.99 216.7 278.99C221.463 278.99 226.032 280.886 229.401 284.261C232.77 287.637 234.662 292.214 234.662 296.988C234.662 307.067 226.579 314.986 216.7 314.986ZM324.474 314.986C319.71 314.986 315.141 313.09 311.773 309.715C308.404 306.339 306.512 301.761 306.512 296.988C306.512 287.269 314.595 278.99 324.474 278.99C329.238 278.99 333.807 280.886 337.176 284.261C340.544 287.637 342.437 292.214 342.437 296.988C342.437 307.067 334.354 314.986 324.474 314.986ZM419.923 346.426C415.464 347.757 410.982 344.744 410.152 340.165C404.472 308.846 391.386 258.394 363.391 220.732C359.549 215.562 362.435 207.713 368.862 207.284C371.004 207.141 373.265 207.042 375.672 207.009C376.852 206.993 378.036 207.229 378.999 207.909C394.341 218.754 425.386 288.077 431.621 336.287C432.061 339.691 430.142 342.938 426.918 344.116C424.853 344.87 422.517 345.651 419.923 346.426Z" fill="#7F9AE6"/>
</svg>
