<svg width="31" height="33" viewBox="0 0 31 33" fill="none" xmlns="http://www.w3.org/2000/svg">
    <path d="M26.4786 18.6667V29.8763C26.4786 30.5605 25.7934 31.1163 24.9478 31.1163H3.19732C2.35167 31.1163 1.6665 30.5605 1.6665 29.8763V5.40491C1.6665 4.73856 2.31515 4.19676 3.12813 4.16718L5.05775 1.45973C5.2163 1.23787 5.61222 1.23787 5.77078 1.45973L7.69847 4.16484H20.191L22.1187 1.45973C22.2773 1.23787 22.6732 1.23787 22.8317 1.45973L24.7594 4.16484H24.9478C25.7934 4.16484 26.4786 4.71988 26.4786 5.40491V13" stroke="#1C1B18" stroke-width="2" stroke-miterlimit="10"/>
    <path d="M12.0591 19.9486C12.0638 19.9477 12.0685 19.9467 12.0747 19.9455C12.3889 19.9006 12.8152 20.3965 12.9174 21.1244C13.0157 21.8326 12.7476 22.4284 12.443 22.4888C12.4383 22.4897 12.4336 22.4906 12.4274 22.4919C12.1132 22.5368 11.6869 22.0409 11.5847 21.3129C11.4864 20.6048 11.7546 20.009 12.0591 19.9486ZM15.7942 19.9383C15.827 19.9318 15.8591 19.9302 15.8909 19.935C16.2045 19.9771 16.4714 20.5696 16.3595 21.2988C16.2575 21.9629 15.8923 22.4213 15.5971 22.4799C15.5643 22.4864 15.5322 22.488 15.5004 22.4833C15.1868 22.4411 14.9196 21.8471 15.0317 21.1194C15.1334 20.4538 15.4989 19.9969 15.7942 19.9383ZM9.67149 22.4787C9.67617 22.4778 9.68086 22.4769 9.68711 22.4756C10.0012 22.4307 10.4276 22.9266 10.5298 23.6546C10.6281 24.3627 10.3599 24.9585 10.0554 25.0189C10.0507 25.0198 10.046 25.0208 10.0413 25.0217C9.72716 25.0666 9.30083 24.5707 9.19861 23.8428C9.10032 23.1346 9.36692 22.5391 9.67149 22.4787ZM17.714 22.4553C17.7468 22.4488 17.779 22.4472 17.8108 22.452C18.1243 22.4941 18.3915 23.0881 18.2794 23.8158C18.1774 24.4799 17.8122 24.9383 17.517 24.9969C17.4842 25.0034 17.452 25.005 17.4203 25.0003C17.1067 24.9581 16.8395 24.3641 16.9516 23.6364C17.0536 22.9723 17.4188 22.5139 17.714 22.4553ZM13.6921 23.875C13.7655 23.8604 13.842 23.8532 13.9181 23.8523C14.3967 23.8507 14.8237 24.1456 14.9824 24.5855C14.9901 24.6077 15.0008 24.6293 15.0116 24.6509C15.3052 25.3535 15.8001 25.9165 16.3772 26.199C16.3953 26.2081 16.413 26.2157 16.432 26.2214C16.4756 26.2365 16.5179 26.2534 16.5577 26.2739C16.5683 26.2782 16.5776 26.2842 16.5882 26.2885C16.59 26.2897 16.5916 26.2894 16.5935 26.2906C16.6031 26.2982 16.614 26.3039 16.6248 26.3097C16.9726 26.508 17.1867 26.8752 17.1851 27.2678C17.181 27.7954 16.7949 28.2548 16.2654 28.3599C16.192 28.3744 16.1155 28.3817 16.0394 28.3826C15.903 28.3827 15.7684 28.3588 15.6386 28.3102C15.6334 28.3081 15.6281 28.306 15.6212 28.3042C15.4267 28.24 15.2229 28.1459 15.0245 28.054C15.0223 28.053 15.0201 28.052 15.0179 28.0509C14.634 27.8725 14.2727 27.7044 13.8903 27.7048C13.8042 27.7045 13.7136 27.7146 13.6215 27.7329C13.3419 27.7883 13.0827 27.9141 12.8076 28.0494C12.5413 28.1797 12.2659 28.3135 11.9879 28.3686C11.8988 28.3863 11.8145 28.3951 11.7319 28.3957C11.1038 28.3969 10.598 27.9009 10.6014 27.2881C10.6036 26.8574 10.866 26.462 11.2697 26.2791C11.28 26.2739 11.2891 26.2705 11.2979 26.2656C11.7597 26.106 12.3857 25.7018 12.8066 24.6897C12.8133 24.6742 12.8184 24.6589 12.8235 24.6437C12.9499 24.25 13.2829 23.9562 13.6921 23.875ZM11.9685 19.492C11.3641 19.6119 10.9821 20.4439 11.1125 21.3797C11.2457 22.3372 11.8628 23.0421 12.4911 22.9522C12.5055 22.9509 12.5195 22.9482 12.5336 22.9454C13.138 22.8254 13.5201 21.9935 13.3896 21.0577C13.2564 20.1002 12.6393 19.3953 12.011 19.4852C11.9951 19.4867 11.9826 19.4892 11.9685 19.492ZM15.7036 19.4818C15.1709 19.5874 14.686 20.2278 14.5592 21.0534C14.4134 22.0124 14.8019 22.8575 15.4293 22.9434C15.516 22.9547 15.6015 22.952 15.6874 22.9349C16.22 22.8293 16.705 22.1889 16.8315 21.3618C16.9775 20.4043 16.5888 19.5576 15.9613 19.4717C15.875 19.462 15.7879 19.465 15.7036 19.4818ZM9.5809 22.0221C8.97644 22.1421 8.59442 22.974 8.72491 23.9099C8.85806 24.8673 9.47519 25.5722 10.1035 25.4823C10.1175 25.4795 10.1319 25.4783 10.1444 25.4758C10.7488 25.3559 11.1309 24.5239 11.0004 23.5881C10.8672 22.6306 10.2501 21.9257 9.62181 22.0156C9.60901 22.0166 9.59496 22.0193 9.5809 22.0221ZM17.6234 21.9988C17.0908 22.1044 16.6059 22.7448 16.4794 23.5719C16.3336 24.5309 16.7221 25.3761 17.3495 25.462C17.4362 25.4732 17.5217 25.4705 17.6076 25.4535C18.1402 25.3478 18.6252 24.7074 18.7516 23.8803C18.899 22.921 18.5089 22.0762 17.8815 21.9903C17.7948 21.979 17.7093 21.9817 17.6234 21.9988ZM13.6015 23.4184C13.0173 23.5343 12.5444 23.9572 12.3692 24.506C12.0645 25.2451 11.6266 25.6642 11.1226 25.8322C11.121 25.8325 11.121 25.8325 11.1198 25.8343C11.1001 25.8414 11.0838 25.8494 11.0722 25.8564C10.5183 26.1087 10.1298 26.654 10.1259 27.2891C10.1202 28.1602 10.8378 28.8641 11.73 28.8611C11.8502 28.861 11.966 28.8475 12.08 28.8249C12.7126 28.6994 13.2451 28.2821 13.7136 28.1891C13.773 28.1774 13.8317 28.1705 13.8885 28.1703C14.3361 28.1684 14.8873 28.5573 15.467 28.7461C15.6438 28.8106 15.8363 28.8484 16.036 28.8483C16.1449 28.8488 16.2529 28.8369 16.356 28.8164C17.0963 28.6695 17.658 28.0313 17.6621 27.2665C17.6669 26.685 17.3473 26.179 16.868 25.9071C16.8535 25.891 16.8298 25.8783 16.795 25.8662C16.7881 25.8644 16.7807 25.8596 16.7738 25.8578C16.7163 25.8296 16.6562 25.8052 16.5952 25.784C16.1421 25.5623 15.6997 25.0917 15.4349 24.4277L15.4317 24.4283C15.2121 23.8202 14.6209 23.3854 13.9199 23.3869C13.8126 23.386 13.7061 23.3977 13.6015 23.4184Z" fill="#1C1B18"/>
    <path d="M13.6921 23.875C13.7655 23.8604 13.842 23.8532 13.9181 23.8523C14.3967 23.8507 14.8237 24.1456 14.9824 24.5855C14.9901 24.6077 15.0008 24.6293 15.0116 24.6509C15.3052 25.3535 15.8001 25.9165 16.3772 26.199C16.3953 26.2081 16.413 26.2157 16.432 26.2214C16.4756 26.2365 16.5179 26.2534 16.5577 26.2739C16.5683 26.2782 16.5776 26.2842 16.5882 26.2885C16.59 26.2897 16.5916 26.2894 16.5935 26.2906C16.6031 26.2982 16.614 26.3039 16.6248 26.3097C16.9726 26.508 17.1867 26.8752 17.1851 27.2678C17.181 27.7954 16.7949 28.2548 16.2654 28.3599C16.192 28.3744 16.1155 28.3817 16.0394 28.3826C15.903 28.3827 15.7684 28.3588 15.6386 28.3102C15.6334 28.3081 15.6281 28.306 15.6212 28.3042C15.4267 28.24 15.2229 28.1459 15.0245 28.054L15.0179 28.0509C14.634 27.8725 14.2727 27.7044 13.8903 27.7048C13.8042 27.7045 13.7136 27.7146 13.6215 27.7329C13.3419 27.7883 13.0827 27.9141 12.8076 28.0494C12.5413 28.1797 12.2659 28.3135 11.9879 28.3686C11.8988 28.3863 11.8145 28.3951 11.7319 28.3957C11.1038 28.3969 10.598 27.9009 10.6014 27.2881C10.6036 26.8574 10.866 26.462 11.2697 26.2791C11.28 26.2739 11.2891 26.2705 11.2979 26.2656C11.7597 26.106 12.3857 25.7018 12.8066 24.6897C12.8133 24.6742 12.8184 24.6589 12.8235 24.6437C12.9499 24.25 13.2829 23.9562 13.6921 23.875Z" fill="#1C1B18"/>
    <path d="M12.0591 19.9486L12.0747 19.9455C12.3889 19.9006 12.8152 20.3965 12.9174 21.1244C13.0157 21.8326 12.7476 22.4284 12.443 22.4888L12.4274 22.4919C12.1132 22.5368 11.6869 22.0409 11.5847 21.3129C11.4864 20.6048 11.7546 20.009 12.0591 19.9486Z" fill="#1C1B18"/>
    <path d="M15.7942 19.9383C15.827 19.9318 15.8591 19.9302 15.8909 19.935C16.2045 19.9771 16.4714 20.5696 16.3595 21.2988C16.2575 21.9629 15.8923 22.4213 15.5971 22.4799C15.5643 22.4864 15.5322 22.488 15.5004 22.4833C15.1868 22.4411 14.9196 21.8471 15.0317 21.1194C15.1334 20.4538 15.4989 19.9969 15.7942 19.9383Z" fill="#1C1B18"/>
    <path d="M17.714 22.4553C17.7468 22.4488 17.779 22.4472 17.8108 22.452C18.1243 22.4941 18.3915 23.0881 18.2794 23.8158C18.1774 24.4799 17.8122 24.9383 17.517 24.9969C17.4842 25.0034 17.452 25.005 17.4203 25.0003C17.1067 24.9581 16.8395 24.3641 16.9516 23.6364C17.0536 22.9723 17.4188 22.5139 17.714 22.4553Z" fill="#1C1B18"/>
    <path d="M9.67149 22.4787L9.68711 22.4756C10.0012 22.4307 10.4276 22.9266 10.5298 23.6546C10.6281 24.3627 10.3599 24.9585 10.0554 25.0189L10.0413 25.0217C9.72716 25.0666 9.30083 24.5707 9.19861 23.8428C9.10032 23.1346 9.36692 22.5391 9.67149 22.4787Z" fill="#1C1B18"/>
    <path d="M6.6665 10.3334H13.3332" stroke="#1C1B18" stroke-width="2" stroke-linecap="round" stroke-linejoin="round"/>
    <path d="M6.6665 13.6666H12.6665" stroke="#1C1B18" stroke-width="2" stroke-linecap="round" stroke-linejoin="round"/>
    <path d="M6.6665 17H14.6665" stroke="#1C1B18" stroke-width="2" stroke-linecap="round" stroke-linejoin="round"/>
    <path d="M29.6419 24.5686C29.5542 24.5689 29.4677 24.5414 29.3895 24.4884C29.3113 24.4354 29.2436 24.3584 29.1919 24.2637L28.0141 22.0924C26.4078 19.1448 23.9987 17.1626 21.3085 16.575V19.3634C21.3085 19.5015 21.2798 19.6369 21.2256 19.7544C21.1713 19.8718 21.0937 19.9668 21.0014 20.0285C20.9092 20.0903 20.8058 20.1164 20.7031 20.104C20.6003 20.0916 20.5022 20.0412 20.4197 19.9583L13.753 13.266C13.684 13.1967 13.628 13.1069 13.5894 13.0037C13.5508 12.9004 13.5308 12.7866 13.5308 12.6711C13.5308 12.5557 13.5508 12.4418 13.5894 12.3386C13.628 12.2353 13.684 12.1455 13.753 12.0763L20.4197 5.38395C20.5022 5.30109 20.6003 5.25064 20.7031 5.23823C20.8058 5.22583 20.9092 5.25198 21.0014 5.31373C21.0937 5.37549 21.1713 5.47042 21.2256 5.58789C21.2798 5.70536 21.3085 5.84073 21.3085 5.97882V9.13164C23.7875 9.66219 26.0441 11.358 27.6731 13.9146C29.3022 16.4712 30.1972 19.7212 30.1974 23.0814V23.825C30.1973 23.9818 30.1602 24.1345 30.0914 24.2614C30.0225 24.3883 29.9255 24.4828 29.8141 24.5314C29.7583 24.5545 29.7003 24.5671 29.6419 24.5686ZM20.753 14.9837H20.8085C22.4109 15.2049 23.9605 15.8747 25.3569 16.9495C26.7534 18.0243 27.9653 19.4801 28.9141 21.2224L29.003 21.3786C28.7179 18.584 27.7428 15.9973 26.2327 14.0301C24.7227 12.0628 22.7645 10.828 20.6697 10.5222C20.5331 10.5019 20.4071 10.4148 20.3158 10.2774C20.2244 10.1401 20.1744 9.96239 20.1752 9.77856V7.466L15.0141 12.6711L20.1974 17.8763V15.7273C20.1976 15.6235 20.214 15.521 20.2456 15.4262C20.2772 15.3314 20.3232 15.2465 20.3808 15.177C20.4827 15.0531 20.6153 14.9842 20.753 14.9837Z" fill="#1C1B18"/>
</svg>



