<svg width="92" height="74" viewBox="0 0 92 74" fill="none" xmlns="http://www.w3.org/2000/svg">
    <path d="M77.795 18.2231V66.423C77.795 69.8152 75.0382 72.5638 71.6391 72.5638H7.15302C3.754 72.5638 1 69.8152 1 66.423V18.2231C1 14.8336 3.754 12.0823 7.15302 12.0823H11.054L17.0612 1.69273C17.5969 0.76909 18.9318 0.76909 19.4675 1.69273L25.4747 12.0823H51.3235L57.3335 1.69273C57.8692 0.76909 59.2041 0.76909 59.7397 1.69273L65.7469 12.0823H71.6391C75.0382 12.0823 77.795 14.8336 77.795 18.2231Z" stroke="#6504B5" stroke-width="2" stroke-linecap="round" stroke-linejoin="round"/>
    <path d="M90.261 21.1205C88.9569 24.997 86.1468 28.7252 83.4293 32.3302C81.5559 34.8128 79.1637 37.9532 77.9521 40.4022V28.7224C78.0335 28.616 78.1148 28.5069 78.1961 28.4005C84.6212 19.8778 86.2169 16.298 82.3608 13.1829C80.9557 12.0465 80.737 9.98931 81.8756 8.58706C83.0114 7.18481 85.0727 6.96929 86.4778 8.10285C90.6789 11.4979 91.9857 15.9958 90.261 21.1205Z" stroke="#6504B5" stroke-width="2" stroke-miterlimit="10"/>
    <path d="M77.7929 52.6271C77.7929 52.6271 68.7933 35.8364 58.5934 35.8364C47.8271 35.8364 37.6047 50.4131 35.751 52.7726" stroke="#6504B5" stroke-width="2" stroke-miterlimit="10"/>
    <path d="M1.94873 69.5743C1.94873 69.5743 12.2972 48.9799 26.6421 48.7672C39.4109 48.5797 47.8271 72.5635 47.8271 72.5635" stroke="#6504B5" stroke-width="2" stroke-miterlimit="10"/>
    <path d="M17.3865 23.2213C17.3958 23.2194 17.4051 23.2176 17.4175 23.2151C18.0414 23.127 18.8936 24.1388 19.104 25.6186C19.3064 27.0582 18.7794 28.2659 18.1747 28.3856C18.1654 28.3874 18.1561 28.3893 18.1437 28.3917C17.5198 28.4799 16.6676 27.4681 16.4572 25.9883C16.2548 24.5487 16.7818 23.341 17.3865 23.2213ZM24.8093 23.2376C24.8744 23.2247 24.9383 23.2217 25.0015 23.2317C25.6251 23.3205 26.1614 24.5267 25.9465 26.0071C25.7503 27.3551 25.0291 28.2828 24.443 28.3989C24.3779 28.4118 24.314 28.4148 24.2508 28.4048C23.6272 28.316 23.0902 27.1067 23.3058 25.6293C23.5013 24.2782 24.2232 23.3536 24.8093 23.2376ZM12.6665 28.3376C12.6758 28.3358 12.6851 28.3339 12.6975 28.3315C13.3214 28.2433 14.1736 29.2551 14.384 30.7349C14.5864 32.1745 14.0594 33.3822 13.4547 33.5019C13.4454 33.5038 13.4361 33.5056 13.4268 33.5075C12.8029 33.5956 11.9507 32.5838 11.7403 31.104C11.5379 29.6644 12.0618 28.4573 12.6665 28.3376ZM28.6498 28.37C28.715 28.3571 28.7788 28.3541 28.8421 28.3641C29.4657 28.453 30.0026 29.6623 29.787 31.1396C29.5909 32.4876 28.8697 33.4153 28.2836 33.5314C28.2184 33.5443 28.1546 33.5472 28.0914 33.5373C27.4678 33.4484 26.9308 32.2391 27.1464 30.7618C27.3425 29.4138 28.0637 28.4861 28.6498 28.37ZM20.6709 31.2142C20.8166 31.1853 20.9685 31.1713 21.1198 31.1703C22.0709 31.1717 22.9225 31.7751 23.2423 32.6704C23.2577 32.7156 23.2794 32.7595 23.301 32.8035C23.8915 34.2338 24.8806 35.3825 26.0304 35.9622C26.0664 35.9808 26.1017 35.9964 26.1395 36.0082C26.2262 36.0392 26.3105 36.074 26.3898 36.1162C26.4109 36.1249 26.4295 36.1373 26.4505 36.146C26.4542 36.1485 26.4573 36.1479 26.4611 36.1504C26.4803 36.1659 26.5019 36.1776 26.5236 36.1894C27.2168 36.5958 27.6459 37.3439 27.6466 38.1416C27.6437 39.2133 26.8809 40.1428 25.8296 40.3509C25.6839 40.3798 25.532 40.3938 25.3807 40.3948C25.1097 40.3938 24.842 40.3439 24.5836 40.2438C24.573 40.2395 24.5625 40.2351 24.5489 40.2314C24.1616 40.099 23.7558 39.906 23.3605 39.7172C23.3561 39.7151 23.3517 39.713 23.3473 39.7109C22.5827 39.3445 21.863 38.9996 21.1029 38.9966C20.9317 38.9951 20.7519 39.0147 20.569 39.0509C20.0139 39.1608 19.5001 39.4137 18.9547 39.6858C18.4267 39.948 17.8806 40.2169 17.3287 40.3262C17.1519 40.3612 16.9845 40.3783 16.8202 40.3786C15.5721 40.3749 14.5618 39.3623 14.5624 38.1173C14.5625 37.2423 15.0802 36.4418 15.8806 36.0742C15.9011 36.0637 15.9191 36.0569 15.9365 36.0471C16.8527 35.7273 18.0928 34.9124 18.9193 32.8605C18.9323 32.829 18.9423 32.7981 18.9523 32.7672C19.1996 31.9687 19.8584 31.375 20.6709 31.2142ZM17.2019 22.2928C16.0018 22.5305 15.2509 24.2167 15.5195 26.1193C15.7937 28.0658 17.0272 29.5039 18.2749 29.3275C18.3034 29.3251 18.3313 29.3196 18.3593 29.3141C19.5593 29.0764 20.3103 27.3901 20.0416 25.4876C19.7675 23.5411 18.534 22.103 17.2862 22.2793C17.2546 22.2824 17.2298 22.2873 17.2019 22.2928ZM24.6247 22.3091C23.5672 22.5185 22.6098 23.8146 22.3661 25.4905C22.0859 27.4374 22.8664 29.1582 24.1142 29.3389C24.2865 29.3627 24.4564 29.358 24.627 29.3242C25.6844 29.1148 26.6418 27.8187 26.885 26.1397C27.1657 24.1959 26.3847 22.472 25.1368 22.2913C24.9651 22.2706 24.7921 22.2759 24.6247 22.3091ZM12.4819 27.4091C11.2819 27.6468 10.5309 29.3331 10.7996 31.2356C11.0737 33.1821 12.3072 34.6202 13.555 34.4439C13.5829 34.4383 13.6114 34.4359 13.6362 34.431C14.8363 34.1934 15.5872 32.5071 15.3186 30.6045C15.0444 28.658 13.8109 27.22 12.5632 27.3963C12.5378 27.3981 12.5099 27.4036 12.4819 27.4091ZM28.4653 27.4416C27.4078 27.651 26.4504 28.9471 26.2072 30.6261C25.9271 32.573 26.7076 34.2938 27.9554 34.4745C28.1277 34.4983 28.2976 34.4936 28.4682 34.4598C29.5256 34.2504 30.483 32.9543 30.7262 31.2753C31.0094 29.3278 30.2258 27.6076 28.978 27.4269C28.8057 27.4031 28.6358 27.4078 28.4653 27.4416ZM20.4863 30.2857C19.3265 30.5154 18.3908 31.3697 18.0481 32.483C17.45 33.9814 16.5838 34.8284 15.5838 35.1648C15.5807 35.1654 15.5807 35.1654 15.5782 35.1691C15.5391 35.1832 15.5069 35.1993 15.4839 35.2135C14.3857 35.7205 13.6189 36.8244 13.6175 38.1146C13.6148 39.8843 15.048 41.3214 16.8212 41.3242C17.0599 41.3251 17.29 41.2989 17.5163 41.254C18.7723 41.0054 19.8263 40.1629 20.7566 39.9787C20.8745 39.9554 20.9911 39.942 21.1039 39.9421C21.9936 39.9429 23.0929 40.7384 24.2468 41.1276C24.5988 41.2605 24.9818 41.3391 25.3786 41.3409C25.595 41.3431 25.8096 41.3199 26.0142 41.2794C27.4841 40.9883 28.5941 39.6974 28.5946 38.1436C28.5982 36.9624 27.9581 35.9311 27.0029 35.374C26.9738 35.3412 26.9267 35.3151 26.8573 35.2902C26.8437 35.2865 26.8288 35.2766 26.8152 35.2728C26.7006 35.2151 26.581 35.1648 26.4595 35.1213C25.5569 34.6664 24.673 33.7059 24.14 32.3543L24.1338 32.3555C23.6911 31.1179 22.5119 30.2288 21.1188 30.2248C20.9055 30.222 20.694 30.2446 20.4863 30.2857Z" fill="#6504B5"/>
    <path d="M20.6709 31.2142C20.8166 31.1853 20.9685 31.1713 21.1198 31.1703C22.0709 31.1717 22.9225 31.7751 23.2423 32.6704C23.2577 32.7156 23.2794 32.7595 23.301 32.8035C23.8915 34.2338 24.8806 35.3825 26.0304 35.9622C26.0664 35.9808 26.1017 35.9964 26.1395 36.0082C26.2262 36.0392 26.3105 36.074 26.3898 36.1162C26.4109 36.1249 26.4295 36.1373 26.4505 36.146C26.4542 36.1485 26.4573 36.1479 26.4611 36.1504C26.4803 36.1659 26.5019 36.1776 26.5236 36.1894C27.2168 36.5958 27.6459 37.3439 27.6466 38.1416C27.6437 39.2133 26.8809 40.1428 25.8296 40.3509C25.6839 40.3798 25.532 40.3938 25.3807 40.3948C25.1097 40.3938 24.842 40.3439 24.5836 40.2438C24.573 40.2395 24.5625 40.2351 24.5489 40.2314C24.1616 40.099 23.7558 39.906 23.3605 39.7172L23.3473 39.7109C22.5827 39.3445 21.863 38.9996 21.1029 38.9966C20.9317 38.9951 20.7519 39.0147 20.569 39.0509C20.0139 39.1608 19.5001 39.4137 18.9547 39.6858C18.4267 39.948 17.8806 40.2169 17.3287 40.3262C17.1519 40.3612 16.9845 40.3783 16.8202 40.3786C15.5721 40.3749 14.5618 39.3623 14.5624 38.1173C14.5625 37.2423 15.0802 36.4418 15.8806 36.0742C15.9011 36.0637 15.9191 36.0569 15.9365 36.0471C16.8527 35.7273 18.0928 34.9124 18.9193 32.8605C18.9323 32.829 18.9423 32.7981 18.9523 32.7672C19.1996 31.9687 19.8584 31.375 20.6709 31.2142Z" fill="#6504B5"/>
    <path d="M17.3865 23.2213L17.4175 23.2151C18.0414 23.127 18.8936 24.1388 19.104 25.6186C19.3064 27.0582 18.7794 28.2659 18.1747 28.3856L18.1437 28.3917C17.5198 28.4799 16.6676 27.4681 16.4572 25.9883C16.2548 24.5487 16.7818 23.341 17.3865 23.2213Z" fill="#6504B5"/>
    <path d="M24.8093 23.2376C24.8744 23.2247 24.9383 23.2217 25.0015 23.2317C25.6251 23.3205 26.1614 24.5267 25.9465 26.0071C25.7503 27.3551 25.0291 28.2828 24.443 28.3989C24.3779 28.4118 24.314 28.4148 24.2508 28.4048C23.6272 28.316 23.0902 27.1067 23.3058 25.6293C23.5013 24.2782 24.2232 23.3536 24.8093 23.2376Z" fill="#6504B5"/>
    <path d="M28.6498 28.37C28.715 28.3571 28.7788 28.3541 28.8421 28.3641C29.4657 28.453 30.0026 29.6623 29.787 31.1396C29.5909 32.4876 28.8697 33.4153 28.2836 33.5314C28.2184 33.5443 28.1546 33.5472 28.0914 33.5373C27.4678 33.4484 26.9308 32.2391 27.1464 30.7618C27.3425 29.4138 28.0637 28.4861 28.6498 28.37Z" fill="#6504B5"/>
    <path d="M12.6665 28.3376L12.6975 28.3315C13.3214 28.2433 14.1736 29.2551 14.384 30.7349C14.5864 32.1745 14.0594 33.3822 13.4547 33.5019L13.4268 33.5075C12.8029 33.5956 11.9507 32.5838 11.7403 31.104C11.5379 29.6644 12.0618 28.4573 12.6665 28.3376Z" fill="#6504B5"/>
</svg>
