<svg width="34" height="34" viewBox="0 0 34 34" fill="none" xmlns="http://www.w3.org/2000/svg">
    <path d="M8.6699 3.40002C8.10658 3.40002 7.6499 3.8567 7.6499 4.42002V20.0607C7.6499 21.7508 9.01991 23.1207 10.7099 23.1207H13.7696V27.2C13.7696 29.0778 15.2917 30.6 17.1696 30.6C19.0474 30.6 20.5696 29.0778 20.5696 27.2V23.1207H23.6299C25.3198 23.1207 26.6899 21.7508 26.6899 20.0607V4.42002C26.6899 3.8567 26.2332 3.40002 25.6699 3.40002H8.6699ZM9.6899 15.6404V5.44002H17.8496V7.82212C17.8496 8.38546 18.3062 8.84212 18.8696 8.84212C19.4329 8.84212 19.8896 8.38546 19.8896 7.82212V5.44002H21.2496V9.18155C21.2496 9.74489 21.7062 10.2015 22.2696 10.2015C22.8329 10.2015 23.2896 9.74489 23.2896 9.18155V5.44002H24.6499V15.6404H9.6899ZM9.6899 20.0607V17.6804H24.6499V20.0607C24.6499 20.624 24.1932 21.0807 23.6299 21.0807H19.5496C18.9862 21.0807 18.5296 21.5374 18.5296 22.1007V27.2C18.5296 27.9512 17.9206 28.56 17.1696 28.56C16.4185 28.56 15.8096 27.9512 15.8096 27.2V22.1007C15.8096 21.5374 15.3529 21.0807 14.7896 21.0807H10.7099C10.1466 21.0807 9.6899 20.624 9.6899 20.0607Z" fill="#1C1B18"/>
</svg>
