<svg width="93" height="89" viewBox="0 0 100 100" fill="none" xmlns="http://www.w3.org/2000/svg">
    <path d="M87.4363 52.0001V90.6288C87.4363 92.6816 85.3808 94.349 82.8438 94.349H17.5924C15.0555 94.349 13 92.6816 13 90.6288V17.2147C13 15.2157 14.946 13.5903 17.3849 13.5015L23.1737 5.37919C23.6494 4.71361 24.8372 4.71361 25.3128 5.37919L31.0959 13.4945H68.5735L74.3566 5.37919C74.8323 4.71361 76.02 4.71361 76.4957 5.37919L82.2788 13.4945H82.8438C85.3808 13.4945 87.4363 15.1596 87.4363 17.2147V30.2316" stroke="#6504B5" stroke-width="2" stroke-miterlimit="10"/>
    <path d="M94.3521 36.3674C93.5692 38.1435 90.7936 38.6334 88.1569 37.469C85.5139 36.3019 84.0094 33.921 84.7922 32.1448C84.8864 31.9315 85.013 31.7338 85.1627 31.5608C86.2451 30.2729 88.6691 30.0194 90.9937 31.046C93.3119 32.0698 94.7594 34.0317 94.5368 35.699C94.5088 35.9273 94.4485 36.1532 94.3543 36.3665L94.3521 36.3674Z" stroke="#6504B5" stroke-width="2" stroke-linecap="round" stroke-linejoin="round"/>
    <path d="M85.1634 31.563C85.0137 31.736 84.8871 31.9337 84.7929 32.147L85.0678 31.5206L85.1625 31.5607L85.1634 31.563Z" stroke="#6504B5" stroke-width="2" stroke-linecap="round" stroke-linejoin="round"/>
    <path d="M94.6302 35.7423L94.3553 36.3687C94.4495 36.1554 94.5099 35.9296 94.5378 35.7012L94.6325 35.7414L94.6302 35.7423Z" stroke="#6504B5" stroke-width="2" stroke-linecap="round" stroke-linejoin="round"/>
    <path d="M94.3519 36.3674L80.93 66.7645C76.821 67.4432 73.6336 66.036 71.3701 62.5419L84.792 32.1448C84.0092 33.921 85.5137 36.3018 88.1567 37.469C90.7965 38.6347 93.569 38.1435 94.3519 36.3674Z" stroke="#6504B5" stroke-width="2" stroke-linecap="round" stroke-linejoin="round"/>
    <path d="M80.9324 66.7636L69.7211 79.2264L71.3734 62.5432C73.6391 66.0364 76.8265 67.4437 80.9333 66.7658L80.9324 66.7636Z" stroke="#6504B5" stroke-width="2" stroke-linecap="round" stroke-linejoin="round"/>
    <path d="M72.8531 75.6343L69.8095 79.018L70.2583 74.4895C70.8726 75.4389 71.7385 75.821 72.854 75.6365L72.8531 75.6343Z" stroke="#6504B5" stroke-width="2" stroke-linecap="round" stroke-linejoin="round"/>
    <path d="M46.4993 71.0571C46.5079 71.0553 46.5166 71.0536 46.5281 71.0513C47.1083 70.9692 47.9009 71.912 48.0965 73.291C48.2848 74.6325 47.7947 75.7579 47.2323 75.8694C47.2236 75.8712 47.215 75.8729 47.2034 75.8752C46.6232 75.9573 45.8307 75.0145 45.635 73.6355C45.4468 72.294 45.9369 71.1686 46.4993 71.0571ZM53.4025 71.0722C53.463 71.0602 53.5224 71.0574 53.5812 71.0667C54.1612 71.1495 54.66 72.2735 54.4601 73.653C54.2777 74.9092 53.6069 75.7737 53.0618 75.8818C53.0013 75.8938 52.9419 75.8966 52.8831 75.8873C52.3031 75.8045 51.8038 74.6776 52.0042 73.301C52.1861 72.042 52.8574 71.1804 53.4025 71.0722ZM42.1097 75.8247C42.1184 75.823 42.127 75.8213 42.1386 75.819C42.7188 75.7368 43.5113 76.6797 43.707 78.0586C43.8952 79.4001 43.4051 80.5255 42.8427 80.6371C42.8341 80.6388 42.8254 80.6405 42.8168 80.6422C42.2366 80.7244 41.444 79.7816 41.2483 78.4026C41.0601 77.0611 41.5473 75.9363 42.1097 75.8247ZM56.9742 75.8549C57.0348 75.8429 57.0942 75.8401 57.153 75.8494C57.7329 75.9322 58.2323 77.0591 58.0318 78.4357C57.8494 79.6919 57.1786 80.5564 56.6336 80.6645C56.573 80.6765 56.5136 80.6793 56.4548 80.67C55.8749 80.5872 55.3755 79.4604 55.576 78.0837C55.7584 76.8275 56.4291 75.9631 56.9742 75.8549ZM49.5537 78.5052C49.6893 78.4783 49.8306 78.4653 49.9713 78.4644C50.8558 78.4657 51.6478 79.028 51.9452 79.8622C51.9595 79.9043 51.9797 79.9453 51.9998 79.9863C52.549 81.3191 53.4688 82.3895 54.5381 82.9297C54.5716 82.9471 54.6044 82.9615 54.6396 82.9725C54.7202 83.0015 54.7986 83.0339 54.8724 83.0732C54.892 83.0813 54.9092 83.0929 54.9288 83.101C54.9323 83.1033 54.9352 83.1027 54.9386 83.105C54.9565 83.1195 54.9766 83.1305 54.9968 83.1415C55.6415 83.5201 56.0406 84.2173 56.0412 84.9605C56.0385 85.9592 55.3291 86.8254 54.3514 87.0193C54.2159 87.0462 54.0746 87.0593 53.9339 87.0602C53.6819 87.0593 53.4329 87.0128 53.1926 86.9196C53.1828 86.9155 53.173 86.9114 53.1603 86.908C52.8001 86.7846 52.4227 86.6047 52.0551 86.4288C52.051 86.4269 52.0469 86.4249 52.0428 86.423C51.3318 86.0815 50.6624 85.7601 49.9555 85.7573C49.7964 85.7559 49.6291 85.7741 49.459 85.8079C48.9427 85.9103 48.4649 86.146 47.9577 86.3995C47.4666 86.6438 46.9588 86.8945 46.4455 86.9963C46.2811 87.0289 46.1254 87.0448 45.9726 87.0452C44.8119 87.0417 43.8723 86.098 43.8729 84.9379C43.873 84.1226 44.3545 83.3766 45.0988 83.0341C45.1179 83.0243 45.1346 83.018 45.1508 83.0088C46.0029 82.7108 47.1561 81.9514 47.9248 80.0394C47.9369 80.01 47.9462 79.9812 47.9555 79.9524C48.1855 79.2083 48.7981 78.6551 49.5537 78.5052ZM46.3276 70.1919C45.2115 70.4133 44.5131 71.9847 44.763 73.7576C45.018 75.5714 46.1651 76.9115 47.3255 76.7472C47.352 76.7449 47.378 76.7398 47.4039 76.7346C48.52 76.5132 49.2184 74.9418 48.9686 73.1689C48.7136 71.3551 47.5664 70.015 46.406 70.1793C46.3766 70.1821 46.3536 70.1867 46.3276 70.1919ZM53.2308 70.207C52.2474 70.4022 51.357 71.61 51.1303 73.1717C50.8698 74.9859 51.5956 76.5894 52.756 76.7578C52.9163 76.78 53.0743 76.7756 53.2329 76.7441C54.2163 76.549 55.1068 75.3412 55.3329 73.7766C55.594 71.9653 54.8676 70.3589 53.7071 70.1905C53.5474 70.1712 53.3865 70.1761 53.2308 70.207ZM41.9381 74.9595C40.822 75.181 40.1236 76.7523 40.3734 78.5252C40.6284 80.3391 41.7756 81.6791 42.936 81.5148C42.9619 81.5097 42.9884 81.5074 43.0115 81.5029C44.1276 81.2814 44.826 79.71 44.5761 77.9372C44.3211 76.1233 43.174 74.7832 42.0136 74.9475C41.99 74.9492 41.964 74.9544 41.9381 74.9595ZM56.8025 74.9897C55.8191 75.1849 54.9287 76.3927 54.7026 77.9572C54.4421 79.7714 55.1679 81.375 56.3283 81.5434C56.4886 81.5655 56.6466 81.5612 56.8052 81.5297C57.7886 81.3346 58.6791 80.1268 58.9052 78.5622C59.1686 76.7474 58.4399 75.1445 57.2794 74.9761C57.1191 74.9539 56.9611 74.9583 56.8025 74.9897ZM49.3821 77.64C48.3035 77.8541 47.4333 78.6502 47.1146 79.6876C46.5583 81.0839 45.7527 81.8732 44.8228 82.1866C44.8199 82.1872 44.8199 82.1872 44.8176 82.1906C44.7812 82.2038 44.7512 82.2188 44.7299 82.232C43.7085 82.7044 42.9954 83.7332 42.9942 84.9354C42.9916 86.5845 44.3244 87.9237 45.9736 87.9262C46.1956 87.9272 46.4095 87.9027 46.62 87.8609C47.788 87.6292 48.7683 86.8442 49.6335 86.6725C49.7431 86.6508 49.8515 86.6382 49.9565 86.6384C50.7839 86.6391 51.8063 87.3805 52.8794 87.7431C53.2067 87.8669 53.5629 87.9401 53.932 87.9419C54.1332 87.9439 54.3327 87.9223 54.5231 87.8845C55.8901 87.6133 56.9223 86.4103 56.9228 84.9625C56.9262 83.8617 56.3309 82.9007 55.4425 82.3816C55.4155 82.351 55.3717 82.3267 55.3071 82.3035C55.2945 82.3001 55.2806 82.2908 55.268 82.2873C55.1614 82.2335 55.0502 82.1867 54.9372 82.1461C54.0977 81.7222 53.2757 80.8272 52.78 79.5677L52.7742 79.5688C52.3626 78.4155 51.266 77.587 49.9703 77.5833C49.772 77.5807 49.5753 77.6017 49.3821 77.64Z" fill="#6504B5"/>
    <path d="M49.5537 78.5052C49.6893 78.4783 49.8306 78.4653 49.9713 78.4644C50.8558 78.4657 51.6478 79.028 51.9452 79.8622C51.9595 79.9043 51.9797 79.9453 51.9998 79.9863C52.549 81.3191 53.4688 82.3895 54.5381 82.9297C54.5716 82.9471 54.6044 82.9615 54.6396 82.9725C54.7202 83.0015 54.7986 83.0339 54.8724 83.0732C54.892 83.0813 54.9092 83.0929 54.9288 83.101C54.9323 83.1033 54.9352 83.1027 54.9386 83.105C54.9565 83.1195 54.9766 83.1305 54.9968 83.1415C55.6415 83.5201 56.0406 84.2173 56.0412 84.9605C56.0385 85.9592 55.3291 86.8254 54.3514 87.0193C54.2159 87.0462 54.0746 87.0593 53.9339 87.0602C53.6819 87.0593 53.4329 87.0128 53.1926 86.9196C53.1828 86.9155 53.173 86.9114 53.1603 86.908C52.8001 86.7846 52.4227 86.6047 52.0551 86.4288L52.0428 86.423C51.3318 86.0815 50.6624 85.7601 49.9555 85.7573C49.7964 85.7559 49.6291 85.7741 49.459 85.8079C48.9427 85.9103 48.4649 86.146 47.9577 86.3995C47.4666 86.6438 46.9588 86.8945 46.4455 86.9963C46.2811 87.0289 46.1254 87.0448 45.9726 87.0452C44.8119 87.0417 43.8723 86.098 43.8729 84.9379C43.873 84.1226 44.3545 83.3766 45.0988 83.0341C45.1179 83.0243 45.1346 83.018 45.1508 83.0088C46.0029 82.7108 47.1561 81.9514 47.9248 80.0394C47.9369 80.01 47.9462 79.9812 47.9555 79.9524C48.1855 79.2083 48.7981 78.6551 49.5537 78.5052Z" fill="#6504B5"/>
    <path d="M46.4993 71.0571L46.5281 71.0513C47.1083 70.9692 47.9009 71.912 48.0965 73.291C48.2848 74.6325 47.7947 75.7579 47.2323 75.8694L47.2034 75.8752C46.6232 75.9573 45.8307 75.0145 45.635 73.6355C45.4468 72.294 45.9369 71.1686 46.4993 71.0571Z" fill="#6504B5"/>
    <path d="M53.4025 71.0722C53.463 71.0602 53.5224 71.0574 53.5812 71.0667C54.1612 71.1495 54.66 72.2735 54.4601 73.653C54.2777 74.9092 53.6069 75.7737 53.0618 75.8818C53.0013 75.8938 52.9419 75.8966 52.8831 75.8873C52.3031 75.8045 51.8038 74.6776 52.0042 73.301C52.1861 72.042 52.8574 71.1804 53.4025 71.0722Z" fill="#6504B5"/>
    <path d="M56.9742 75.8549C57.0348 75.8429 57.0942 75.8401 57.153 75.8494C57.7329 75.9322 58.2323 77.0591 58.0318 78.4357C57.8494 79.6919 57.1786 80.5564 56.6336 80.6645C56.573 80.6765 56.5136 80.6793 56.4548 80.67C55.8749 80.5872 55.3755 79.4604 55.576 78.0837C55.7584 76.8275 56.4291 75.9631 56.9742 75.8549Z" fill="#6504B5"/>
    <path d="M42.1097 75.8247L42.1386 75.819C42.7188 75.7368 43.5113 76.6797 43.707 78.0586C43.8952 79.4001 43.4051 80.5255 42.8427 80.6371L42.8168 80.6422C42.2366 80.7244 41.444 79.7816 41.2483 78.4026C41.0601 77.0611 41.5473 75.9363 42.1097 75.8247Z" fill="#6504B5"/>
    <path d="M27.3105 27.5952H71.6813" stroke="#6504B5" stroke-width="2" stroke-linecap="round" stroke-linejoin="round"/>
    <path d="M27.3105 36.3242H71.6813" stroke="#6504B5" stroke-width="2" stroke-linecap="round" stroke-linejoin="round"/>
    <path d="M27 45H68" stroke="#6504B5" stroke-width="2" stroke-linecap="round" stroke-linejoin="round"/>
    <path d="M27 54H64" stroke="#6504B5" stroke-width="2" stroke-linecap="round" stroke-linejoin="round"/>
    <path d="M27 63H61" stroke="#6504B5" stroke-width="2" stroke-linecap="round" stroke-linejoin="round"/>
</svg>
