<svg width="34" height="34" viewBox="0 0 34 34" fill="none" xmlns="http://www.w3.org/2000/svg">
    <path d="M11.7086 19.7252C12.4681 19.7252 13.0838 19.1152 13.0838 18.3627C13.0838 17.61 12.4681 17 11.7086 17C10.9492 17 10.3335 17.61 10.3335 18.3627C10.3335 19.1152 10.9492 19.7252 11.7086 19.7252Z" fill="#1C1B18"/>
    <path d="M16.9998 19.6667C17.7362 19.6667 18.3332 19.0697 18.3332 18.3333C18.3332 17.5969 17.7362 17 16.9998 17C16.2634 17 15.6665 17.5969 15.6665 18.3333C15.6665 19.0697 16.2634 19.6667 16.9998 19.6667Z" fill="#1C1B18"/>
    <path d="M22.3752 19.7252C23.1347 19.7252 23.7503 19.1152 23.7503 18.3627C23.7503 17.61 23.1347 17 22.3752 17C21.6157 17 21 17.61 21 18.3627C21 19.1152 21.6157 19.7252 22.3752 19.7252Z" fill="#1C1B18"/>
    <path d="M25.0173 7.66663H8.98264C6.78309 7.66663 5 9.39092 5 11.518V25.1486C5 27.2757 6.78309 29 8.98264 29H25.0173C27.2169 29 29 27.2757 29 25.1486V11.518C29 9.39092 27.2169 7.66663 25.0173 7.66663Z" stroke="#1C1B18" stroke-width="3" stroke-miterlimit="10"/>
    <path d="M11.6665 5V9" stroke="#1C1B18" stroke-width="2" stroke-miterlimit="10" stroke-linecap="round"/>
    <path d="M22.3335 5V9" stroke="#1C1B18" stroke-width="2" stroke-miterlimit="10" stroke-linecap="round"/>
    <path d="M5 13H29" stroke="#1C1B18" stroke-width="1.5" stroke-miterlimit="10" stroke-linecap="round"/>
    <path d="M11.7086 25.0586C12.4681 25.0586 13.0838 24.4486 13.0838 23.696C13.0838 22.9434 12.4681 22.3334 11.7086 22.3334C10.9492 22.3334 10.3335 22.9434 10.3335 23.696C10.3335 24.4486 10.9492 25.0586 11.7086 25.0586Z" fill="#1C1B18"/>
    <path d="M17.0417 25.0586C17.8012 25.0586 18.4168 24.4486 18.4168 23.696C18.4168 22.9434 17.8012 22.3334 17.0417 22.3334C16.2822 22.3334 15.6665 22.9434 15.6665 23.696C15.6665 24.4486 16.2822 25.0586 17.0417 25.0586Z" fill="#1C1B18"/>
</svg>

