<svg width="27" height="32" viewBox="0 0 27 32" fill="none" xmlns="http://www.w3.org/2000/svg">
    <path d="M22.6774 3.45158L21.5469 1.96095C21.3935 1.74625 21.0103 1.74625 20.8569 1.96095L18.9914 4.57881H6.90187L5.03632 1.96095C4.88291 1.74625 4.49974 1.74625 4.34632 1.96095L2.4789 4.58106C1.69219 4.60971 1.06445 5.13403 1.06445 5.77887V27.3225M25.0761 7.96771V16.3548V29.4608C25.0761 30.123 24.4131 30.6609 23.5947 30.6609H4.61284" stroke="#1C1B18" stroke-width="2" stroke-miterlimit="10" stroke-linecap="round"/>
    <path d="M5.2583 10.0078L19.6742 9.9032" stroke="#1C1B18" stroke-width="2" stroke-linecap="round" stroke-linejoin="round"/>
    <path d="M5.2583 13.7742H20.097" stroke="#1C1B18" stroke-width="2" stroke-linecap="round" stroke-linejoin="round"/>
    <path d="M5.2583 17.6451H9.77443H20.2583" stroke="#1C1B18" stroke-width="2" stroke-linecap="round" stroke-linejoin="round"/>
    <path d="M12.7019 23.6532C12.773 23.6391 12.847 23.6321 12.9206 23.6312C13.3838 23.6297 13.797 23.915 13.9506 24.3408C13.9581 24.3623 13.9685 24.3832 13.9789 24.4041C14.2631 25.084 14.7419 25.6288 15.3005 25.9023C15.3179 25.911 15.3351 25.9183 15.3535 25.9239C15.3957 25.9385 15.4366 25.9548 15.4751 25.9748C15.4802 25.9768 15.485 25.9793 15.4899 25.9818C15.4947 25.9843 15.4995 25.9868 15.5046 25.9888L15.5076 25.9899L15.5097 25.9908C15.519 25.9982 15.5295 26.0037 15.5401 26.0094C15.8767 26.2012 16.0839 26.5566 16.0822 26.9366C16.0783 27.4471 15.7046 27.8917 15.1922 27.9934C15.1212 28.0075 15.0471 28.0145 14.9735 28.0154C14.8415 28.0155 14.7113 27.9924 14.5857 27.9454C14.5806 27.9433 14.5755 27.9412 14.5688 27.9395C14.3806 27.8774 14.1834 27.7863 13.9913 27.6974L13.985 27.6944C13.6135 27.5217 13.2639 27.3591 12.8937 27.3595C12.8104 27.3592 12.7228 27.3689 12.6336 27.3867C12.363 27.4403 12.1122 27.562 11.8461 27.6929C11.5882 27.819 11.3217 27.9485 11.0527 28.0019C10.9665 28.019 10.885 28.0275 10.805 28.0281C10.1972 28.0292 9.7076 27.5492 9.71095 26.9562C9.71308 26.5394 9.96708 26.1568 10.3577 25.9798C10.362 25.9776 10.3661 25.9757 10.3701 25.974C10.3752 25.9716 10.3801 25.9694 10.385 25.9667C10.8319 25.8122 11.4377 25.4211 11.8451 24.4417C11.8515 24.4266 11.8564 24.4119 11.8613 24.3971C11.9837 24.0161 12.3059 23.7317 12.7019 23.6532Z" fill="#1C1B18"/>
    <path d="M14.7362 19.8436C14.7679 19.8373 14.799 19.8357 14.8298 19.8403C15.1333 19.8812 15.3915 20.4544 15.2833 21.1602C15.1846 21.8028 14.8312 22.2464 14.5455 22.3032C14.5138 22.3095 14.4827 22.311 14.4519 22.3064C14.1484 22.2656 13.8898 21.6908 13.9984 20.9865C14.0967 20.3424 14.4505 19.9003 14.7362 19.8436Z" fill="#1C1B18"/>
    <path d="M16.5941 22.2794C16.6258 22.2731 16.6569 22.2715 16.6877 22.2761C16.9912 22.3169 17.2498 22.8917 17.1412 23.596C17.0425 24.2386 16.6891 24.6822 16.4034 24.7389C16.3717 24.7453 16.3406 24.7468 16.3098 24.7422C16.0063 24.7014 15.7478 24.1266 15.8563 23.4223C15.955 22.7797 16.3084 22.336 16.5941 22.2794Z" fill="#1C1B18"/>
    <path fill-rule="evenodd" clip-rule="evenodd" d="M8.87646 24.668C8.97614 24.7417 9.07756 24.7761 9.16918 24.763L9.18272 24.7603C9.41776 24.7137 9.63034 24.3378 9.65866 23.84L8.87646 24.668Z" fill="#1C1B18"/>
    <path fill-rule="evenodd" clip-rule="evenodd" d="M11.2246 22.2467C11.3114 22.3017 11.3985 22.3262 11.4781 22.3148L11.4932 22.3118C11.7238 22.266 11.9329 21.9031 11.9673 21.4192L11.2246 22.2467Z" fill="#1C1B18"/>
    <path fill-rule="evenodd" clip-rule="evenodd" d="M11.4781 22.3148C11.3985 22.3262 11.3114 22.3017 11.2246 22.2467L11.1982 22.2762L10.9109 22.5813C11.1051 22.7238 11.3217 22.7914 11.5398 22.7603C11.5536 22.7591 11.5673 22.7564 11.5809 22.7536C12.1658 22.6376 12.5355 21.8325 12.4093 20.9268L11.9673 21.4192C11.9329 21.9031 11.7238 22.266 11.4932 22.3118L11.4781 22.3148ZM14.7362 19.8436C14.768 19.8373 14.7991 19.8357 14.8298 19.8404C15.1333 19.8812 15.3916 20.4545 15.2834 21.1602C15.1847 21.8029 14.8313 22.2465 14.5456 22.3032C14.5138 22.3095 14.4827 22.3111 14.452 22.3065C14.1485 22.2656 13.8899 21.6908 13.9984 20.9865C14.0968 20.3425 14.4505 19.9003 14.7362 19.8436ZM8.80641 24.742L8.87628 24.668C8.97596 24.7417 9.07738 24.7761 9.16899 24.763L9.18254 24.7603C9.41758 24.7137 9.63016 24.3378 9.65848 23.84L10.0971 23.3756C10.2234 24.2813 9.8537 25.0864 9.26874 25.2025C9.26287 25.2036 9.25654 25.2045 9.25009 25.2054C9.24319 25.2064 9.23616 25.2074 9.22912 25.2088C8.99048 25.2429 8.75358 25.1585 8.5459 24.9875L8.80641 24.742ZM16.5942 22.2795C16.6259 22.2731 16.657 22.2715 16.6878 22.2762C16.9913 22.317 17.2498 22.8918 17.1413 23.596C17.0426 24.2387 16.6892 24.6823 16.4035 24.739C16.3718 24.7453 16.3407 24.7469 16.3099 24.7423C16.0064 24.7014 15.7478 24.1266 15.8563 23.4224C15.9551 22.7798 16.3085 22.3361 16.5942 22.2795ZM12.702 23.6533C12.773 23.6392 12.8471 23.6322 12.9207 23.6313C13.3838 23.6298 13.7971 23.9151 13.9507 24.3409C13.9581 24.3624 13.9685 24.3833 13.9789 24.4042C14.2631 25.0841 14.742 25.6289 15.3005 25.9024C15.318 25.9111 15.3351 25.9184 15.3535 25.924C15.3957 25.9385 15.4366 25.9549 15.4751 25.9749C15.4803 25.9769 15.4851 25.9794 15.4899 25.9819C15.4947 25.9844 15.4995 25.9869 15.5047 25.9889L15.5076 25.99L15.5098 25.9909C15.5191 25.9983 15.5296 26.0038 15.5402 26.0094C15.8767 26.2013 16.0839 26.5567 16.0823 26.9367C16.0783 27.4472 15.7047 27.8918 15.1923 27.9934C15.1213 28.0076 15.0472 28.0146 14.9736 28.0154C14.8416 28.0156 14.7113 27.9925 14.5858 27.9454C14.5806 27.9434 14.5755 27.9413 14.5689 27.9396C14.3806 27.8774 14.1834 27.7864 13.9914 27.6975L13.985 27.6945C13.6136 27.5218 13.2639 27.3592 12.8938 27.3596C12.8104 27.3593 12.7228 27.369 12.6336 27.3867C12.3631 27.4404 12.1123 27.5621 11.8461 27.693C11.5883 27.8191 11.3218 27.9485 11.0527 28.002C10.9665 28.0191 10.885 28.0276 10.805 28.0282C10.1973 28.0293 9.70764 27.5493 9.71099 26.9563C9.71312 26.5395 9.96712 26.1569 10.3577 25.9799C10.362 25.9777 10.3662 25.9758 10.3701 25.9741C10.3753 25.9717 10.3802 25.9695 10.385 25.9668C10.832 25.8123 11.4377 25.4212 11.8451 24.4418C11.8515 24.4267 11.8565 24.412 11.8614 24.3972C11.9838 24.0162 12.306 23.7318 12.702 23.6533ZM14.6485 19.4018C14.1331 19.504 13.6638 20.1238 13.5411 20.9227C13.4001 21.8508 13.776 22.6687 14.3832 22.7518C14.4671 22.7627 14.5498 22.76 14.6329 22.7436C15.1484 22.6413 15.6177 22.0216 15.7401 21.2212C15.8814 20.2945 15.5052 19.4752 14.898 19.3921C14.8144 19.3826 14.7302 19.3856 14.6485 19.4018ZM16.5065 21.8376C15.9911 21.9398 15.5218 22.5596 15.3994 23.36C15.2583 24.2881 15.6342 25.106 16.2414 25.1891C16.3253 25.2 16.408 25.1973 16.4912 25.1809C17.0066 25.0785 17.4759 24.4589 17.5983 23.6585C17.7409 22.73 17.3634 21.9125 16.7562 21.8294C16.6724 21.8184 16.5896 21.8211 16.5065 21.8376ZM12.6143 23.2115C12.049 23.3236 11.5913 23.7328 11.4218 24.264C11.1269 24.9792 10.7031 25.3847 10.2154 25.5473C10.2138 25.5476 10.2138 25.5476 10.2126 25.5494C10.1936 25.5563 10.1778 25.564 10.1666 25.5708C9.63061 25.8149 9.25461 26.3427 9.25087 26.9573C9.24532 27.8003 9.93977 28.4815 10.8033 28.4785C10.9194 28.4785 11.0316 28.4654 11.1419 28.4435C11.4709 28.3782 11.772 28.2314 12.0504 28.0956C12.2901 27.9786 12.5131 27.8699 12.7228 27.8283C12.7803 27.8169 12.8371 27.8102 12.892 27.81C13.1589 27.8089 13.4637 27.9513 13.7896 28.1034C13.9928 28.1984 14.2042 28.2971 14.4196 28.3672C14.5907 28.4297 14.7771 28.4662 14.9703 28.4662C15.0756 28.4667 15.1802 28.4551 15.28 28.4353C15.9964 28.2932 16.54 27.6756 16.544 26.9354C16.5485 26.3727 16.2393 25.8829 15.7754 25.6198C15.7614 25.6042 15.7385 25.592 15.7048 25.5803C15.7014 25.5794 15.698 25.5778 15.6945 25.5762C15.6911 25.5745 15.6876 25.5729 15.6843 25.5721C15.6286 25.5449 15.5705 25.5212 15.5114 25.5007C15.073 25.2862 14.6449 24.8307 14.3885 24.1882L14.3855 24.1887C14.1729 23.6002 13.6009 23.1795 12.9225 23.1809C12.8186 23.1801 12.7156 23.1913 12.6143 23.2115Z" fill="#1C1B18"/>
    <path fill-rule="evenodd" clip-rule="evenodd" d="M1.16886 30.8623C0.639181 30.3856 0.596213 29.5697 1.07292 29.04L24.2987 3.23355C24.7754 2.70386 25.5913 2.66092 26.121 3.13764C26.6507 3.61439 26.6936 4.4302 26.2169 4.95994L2.99112 30.7664C2.51441 31.2961 1.69854 31.339 1.16886 30.8623Z" fill="#1C1B18"/>
</svg>


