<svg width="26" height="27" viewBox="0 0 26 27" fill="none" xmlns="http://www.w3.org/2000/svg">
    <path d="M21.3924 0.916016C20.2834 0.916016 19.1744 1.34637 18.3137 2.20706L1.5632 18.9576L1.497 19.2886L0.338362 25.1149L0.00732422 26.6708L1.5632 26.3397L7.38947 25.1811L7.72051 25.1149L24.471 8.36437C26.1924 6.64298 26.1924 3.92846 24.471 2.20706C23.6103 1.34637 22.5014 0.916016 21.3924 0.916016ZM21.3924 2.93535C21.9262 2.93535 22.4641 3.17949 22.9814 3.69674C24.0117 4.72709 24.0117 5.84435 22.9814 6.8747L22.22 7.60299L19.0751 4.45812L19.8034 3.69674C20.3207 3.17949 20.8586 2.93535 21.3924 2.93535ZM17.5854 5.94779L20.7303 9.09266L7.91914 21.9038C7.22396 20.5466 6.13153 19.4542 4.77427 18.759L17.5854 5.94779ZM3.41702 20.4804C4.68738 20.9935 5.68463 21.9907 6.19774 23.2611L2.72184 23.9563L3.41702 20.4804Z" fill="#1C1B18"/>
</svg>

