<svg width="50" height="50" viewBox="0 0 50 50" fill="none" xmlns="http://www.w3.org/2000/svg">
    <rect width="50" height="50" rx="25" fill="white"/>
    <path d="M20.2892 17.0419L7.5376 20.3061L24.812 24.8866L42.5072 20.3061L30.2771 17.0419" stroke="#1C1B18" stroke-linecap="round" stroke-linejoin="round"/>
    <path d="M7.5376 30.5854V37.0415L24.9333 42.8176V32.1665V25.1109L19.2527 23.43L7.5376 20.3064" stroke="#1C1B18" stroke-linecap="round" stroke-linejoin="round"/>
    <path d="M42.5065 20.3064L29.3342 23.654L24.9326 24.6307V32.1665V42.8176L42.5065 36.3212V31.0091" stroke="#1C1B18" stroke-linecap="round" stroke-linejoin="round"/>
    <path d="M43.9394 30.4442L42.5067 20.3064L25 24.6627L26.2467 36.3757L43.9394 30.4442Z" stroke="#1C1B18" stroke-linecap="round" stroke-linejoin="round"/>
    <path d="M6.06055 30.0205L23.3969 36.2344L24.623 24.9989L7.53701 20.3064L6.06055 30.0205Z" stroke="#1C1B18" stroke-linecap="round" stroke-linejoin="round"/>
    <path d="M25.1453 18.7195C25.2817 18.7318 25.4189 18.7318 25.5553 18.7195L27.4606 18.5469C28.3792 18.4637 29.2569 18.9439 29.6822 19.7623L30.4015 21.1463C31.0865 22.4645 30.3436 24.0746 28.8962 24.4089L25.8023 25.1232C25.504 25.1921 25.195 25.2 24.8935 25.1464L21.8769 24.6107C20.3797 24.3448 19.5609 22.7121 20.2434 21.3531L21.0269 19.7926C21.4459 18.958 22.3329 18.4648 23.2629 18.549L25.1453 18.7195Z" fill="#1C1B18"/>
    <path d="M31.2273 4C29.595 4 28.6023 4.30938 28.0295 4.57188C27.2945 4.21563 26.4545 4 25.5 4C24.5455 4 23.7055 4.21563 22.9705 4.57188C22.3977 4.30938 21.405 4 19.7727 4C16.9091 4 15 11.5 15 13.375C15 14.1531 16.26 14.8656 17.9973 15.1562C18.6082 17.2562 21.4909 18.8594 25.0227 19V14.9875C24.4595 14.6406 23.5909 14.0125 23.5909 13.375C23.5909 12.4375 25.5 12.4375 25.5 12.4375C25.5 12.4375 27.4091 12.4375 27.4091 13.375C27.4091 14.0125 26.5405 14.6406 25.9773 14.9875V19C29.5091 18.8594 32.3918 17.2562 33.0027 15.1562C34.74 14.8656 36 14.1531 36 13.375C36 11.5 34.0909 4 31.2273 4ZM18.0068 13.2531C17.5295 13.1406 17.1573 13.0094 16.9091 12.9062C17.1477 10.3094 19.0091 6.25 19.8205 5.875C20.3359 5.875 20.7273 5.93125 21.0805 5.97813C19.0759 8.14375 18.2836 11.5375 18.0068 13.2531ZM22.6364 11.5C22.3832 11.5 22.1404 11.4012 21.9614 11.2254C21.7824 11.0496 21.6818 10.8111 21.6818 10.5625C21.6818 10.0563 22.1114 9.625 22.6364 9.625C22.8895 9.625 23.1323 9.72377 23.3113 9.89959C23.4903 10.0754 23.5909 10.3139 23.5909 10.5625C23.5909 11.0875 23.1614 11.5 22.6364 11.5ZM28.3636 11.5C28.1105 11.5 27.8677 11.4012 27.6887 11.2254C27.5097 11.0496 27.4091 10.8111 27.4091 10.5625C27.4091 10.0563 27.8386 9.625 28.3636 9.625C28.6168 9.625 28.8596 9.72377 29.0386 9.89959C29.2176 10.0754 29.3182 10.3139 29.3182 10.5625C29.3182 11.0875 28.8886 11.5 28.3636 11.5ZM32.9932 13.2531C32.7164 11.5375 31.9241 8.14375 29.9195 5.97813C30.2727 5.93125 30.6641 5.875 31.1795 5.875C31.9909 6.25 33.8523 10.3094 34.0909 12.9062C33.8523 13.0094 33.48 13.1406 32.9932 13.2531Z" fill="#1C1B18"/>
</svg>
