<svg width="50" height="50" viewBox="0 0 50 50" fill="none" xmlns="http://www.w3.org/2000/svg">
    <rect width="50" height="50" rx="25" fill="white"/>
    <path d="M20.2892 17.0419L7.5376 20.3061L24.812 24.8866L42.5072 20.3061L30.2771 17.0419" stroke="#1C1B18" stroke-linecap="round" stroke-linejoin="round"/>
    <path d="M7.5376 30.5854V37.0415L24.9333 42.8176V32.1665V25.1109L19.2527 23.43L7.5376 20.3064" stroke="#1C1B18" stroke-linecap="round" stroke-linejoin="round"/>
    <path d="M42.5065 20.3064L29.3342 23.654L24.9326 24.6307V32.1665V42.8176L42.5065 36.3212V31.0091" stroke="#1C1B18" stroke-linecap="round" stroke-linejoin="round"/>
    <path d="M43.9394 30.4442L42.5067 20.3064L25 24.6627L26.2467 36.3757L43.9394 30.4442Z" stroke="#1C1B18" stroke-linecap="round" stroke-linejoin="round"/>
    <path d="M6.06055 30.0205L23.3969 36.2344L24.623 24.9989L7.53701 20.3064L6.06055 30.0205Z" stroke="#1C1B18" stroke-linecap="round" stroke-linejoin="round"/>
    <path d="M24.8304 18.7195C24.9668 18.7318 25.1039 18.7318 25.2403 18.7195L27.1457 18.5469C28.0643 18.4637 28.942 18.9439 29.3673 19.7623L30.0866 21.1463C30.7716 22.4645 30.0286 24.0746 28.5812 24.4089L25.4874 25.1232C25.1891 25.1921 24.88 25.2 24.5786 25.1464L21.562 24.6107C20.0648 24.3448 19.246 22.7121 19.9284 21.3531L20.712 19.7926C21.131 18.958 22.018 18.4648 22.948 18.549L24.8304 18.7195Z" fill="#1C1B18"/>
    <path fill-rule="evenodd" clip-rule="evenodd" d="M24.9998 6.90171L24.3655 6.94428C23.8864 6.97644 23.4241 6.77735 23.0965 6.42638C22.0902 5.34837 20.3178 3.73082 18.4548 3.34332C17.9603 3.24047 17.4826 3.51019 17.2856 3.97518C16.8138 5.08857 16.2007 7.40139 17.5042 10.2285C17.5679 10.3666 17.5588 10.5299 17.4738 10.656C17.1545 11.1298 16.9139 11.487 16.7648 11.9332C16.602 12.4201 16.2419 12.8484 15.7341 12.9241L15.1278 13.0145C14.8298 13.0589 14.6314 13.3458 14.695 13.6403C14.7529 13.9085 15.0088 14.0859 15.2803 14.0461L16.2176 13.9088C16.4572 13.8737 16.6823 14.0325 16.7294 14.27C16.767 14.459 16.6813 14.6511 16.5157 14.7495L15.572 15.31C15.3326 15.4522 15.2473 15.7573 15.3781 16.0032C15.5189 16.2677 15.8533 16.3593 16.1093 16.2034L16.3811 16.0379C16.7973 15.7845 17.3381 15.9516 17.6184 16.3502C19.0386 18.3705 21.8109 19.3954 24.9998 19.3954C28.1887 19.3954 30.961 18.3705 32.3813 16.3502C32.6615 15.9516 33.2023 15.7845 33.6185 16.0379L33.8903 16.2034C34.1463 16.3593 34.4807 16.2677 34.6215 16.0032C34.7524 15.7573 34.6669 15.4522 34.4276 15.31L33.4839 14.7495C33.3182 14.6511 33.2326 14.459 33.2701 14.27C33.3174 14.0325 33.5424 13.8737 33.782 13.9088L34.7193 14.0461C34.9908 14.0859 35.2466 13.9085 35.3046 13.6403C35.3682 13.3458 35.1698 13.0589 34.8718 13.0145L34.2655 12.9241C33.7576 12.8484 33.3976 12.4201 33.2348 11.9332C33.0857 11.487 32.8451 11.1298 32.5258 10.656C32.441 10.5301 32.4316 10.3667 32.4952 10.2288C33.799 7.40159 33.1858 5.08862 32.714 3.97518C32.5169 3.51019 32.0393 3.24047 31.5449 3.34332C29.6818 3.73082 27.9094 5.34837 26.9032 6.42638C26.5755 6.77735 26.1132 6.97644 25.6341 6.94428L24.9998 6.90171ZM21.8511 10.0251C22.1294 10.0251 22.3964 10.1348 22.5932 10.3301C22.7901 10.5254 22.9007 10.7901 22.9007 11.0663C22.9007 11.3424 22.7901 11.6073 22.5932 11.8025C22.3964 11.9977 22.1294 12.1074 21.8511 12.1074C21.5727 12.1074 21.3057 11.9977 21.1089 11.8025C20.9121 11.6073 20.8015 11.3424 20.8015 11.0663C20.8015 10.7901 20.9121 10.5254 21.1089 10.3301C21.3057 10.1348 21.5727 10.0251 21.8511 10.0251ZM28.1485 10.0251C28.4269 10.0251 28.6938 10.1348 28.8907 10.3301C29.0876 10.5254 29.1981 10.7901 29.1981 11.0663C29.1981 11.3424 29.0876 11.6073 28.8907 11.8025C28.6938 11.9977 28.4269 12.1074 28.1485 12.1074C27.8701 12.1074 27.6032 11.9977 27.4063 11.8025C27.2095 11.6073 27.0989 11.3424 27.0989 11.0663C27.0989 10.7901 27.2095 10.5254 27.4063 10.3301C27.6032 10.1348 27.8701 10.0251 28.1485 10.0251ZM24.5591 14.8951C24.6575 14.7113 24.6321 14.4916 24.5378 14.3058L24.4254 14.0845C24.2078 13.6559 24.5191 13.1485 24.9998 13.1485C25.4804 13.1485 25.7919 13.6559 25.5743 14.0845L25.4619 14.3058C25.3675 14.4916 25.3422 14.7113 25.4404 14.8951C25.7124 15.4035 26.226 15.7514 26.8366 15.7514C26.9537 15.7514 27.0695 15.7385 27.182 15.7134C27.3126 15.6842 27.4535 15.7346 27.516 15.8529C27.5887 15.9903 27.5278 16.1619 27.3776 16.2016C27.2026 16.2479 27.0208 16.272 26.8366 16.272C25.8382 16.272 24.1614 16.272 23.1631 16.272C22.9898 16.272 22.8186 16.2507 22.6533 16.2097C22.4908 16.1693 22.4322 15.9794 22.5234 15.839C22.5908 15.7351 22.7201 15.6934 22.8413 15.7185C22.9463 15.7402 23.0541 15.7514 23.1631 15.7514C23.7736 15.7514 24.2873 15.4035 24.5591 14.8951Z" fill="#1C1B18"/>
</svg>
