<svg width="87" height="91" viewBox="0 0 100 100" fill="none" xmlns="http://www.w3.org/2000/svg">
    <path d="M39.1279 35.306L9.70117 42.8388L49.5653 53.4092L90.4003 42.8388L62.1771 35.306" stroke="#6504B5" stroke-width="2" stroke-linecap="round" stroke-linejoin="round"/>
    <path d="M9.70117 66.56V81.4585L49.8452 94.7881V70.2087V53.9266L36.736 50.0474L9.70117 42.8391" stroke="#6504B5" stroke-width="2" stroke-linecap="round" stroke-linejoin="round"/>
    <path d="M90.4003 42.8391L60.0026 50.5646L49.8452 52.8184V70.2087V94.7881L90.4003 79.7964V67.5377" stroke="#6504B5" stroke-width="2" stroke-linecap="round" stroke-linejoin="round"/>
    <path d="M93.7062 66.234L90.4001 42.8391L50 52.8921L52.8771 79.9221L93.7062 66.234Z" stroke="#6504B5" stroke-width="2" stroke-linecap="round" stroke-linejoin="round"/>
    <path d="M6.29346 65.2563L46.3005 79.5962L49.13 53.668L9.70067 42.8391L6.29346 65.2563Z" stroke="#6504B5" stroke-width="2" stroke-linecap="round" stroke-linejoin="round"/>
    <path d="M49.8014 37.299C49.9865 37.317 50.1728 37.317 50.3579 37.299L56.2106 36.7318C57.411 36.6154 58.557 37.2581 59.0838 38.343L62.8667 46.1341C63.6681 47.7847 62.7451 49.7541 60.9639 50.1944L50.6914 52.7332C50.2883 52.8328 49.8685 52.8442 49.4605 52.7667L39.2281 50.8214C37.3777 50.4696 36.3554 48.4676 37.1553 46.7624L41.0874 38.3806C41.6056 37.2759 42.7627 36.6169 43.9772 36.7346L49.8014 37.299Z" fill="#6504B5"/>
    <path fill-rule="evenodd" clip-rule="evenodd" d="M50.0001 11.9057L47.7453 12.057C47.1373 12.0979 46.5494 11.8475 46.1427 11.3937C43.826 8.80828 39.0192 4.14765 34.0686 3.55831C33.432 3.48254 32.8332 3.81431 32.5483 4.38849C31.4864 6.52867 29.3539 12.3205 32.7025 19.5828C32.8495 19.9016 32.8284 20.2784 32.6323 20.5695C31.788 21.8227 31.1818 22.7224 30.859 23.9825C30.6353 24.8554 29.9894 25.5991 29.0983 25.7319L27.2186 26.0121C26.531 26.1146 26.073 26.7768 26.2198 27.4564C26.3535 28.0753 26.944 28.4846 27.5704 28.3929L29.7335 28.0759C30.2864 27.9949 30.8057 28.3614 30.9146 28.9094C31.0014 29.3456 30.8037 29.789 30.4214 30.0161L28.2437 31.3094C27.6913 31.6375 27.4942 32.3418 27.7961 32.909C28.1212 33.5195 28.8928 33.7309 29.4836 33.3712L30.1108 32.9893C31.0714 32.4044 32.3193 32.79 32.966 33.7099C36.2436 38.3722 42.6411 40.7373 50.0001 40.7373C57.3591 40.7373 63.7567 38.3722 67.0342 33.7099C67.6809 32.79 68.9288 32.4044 69.8893 32.9893L70.5166 33.3712C71.1073 33.7309 71.8791 33.5195 72.2041 32.909C72.506 32.3418 72.309 31.6375 71.7565 31.3094L69.5788 30.0161C69.1965 29.789 68.9989 29.3456 69.0855 28.9094C69.1944 28.3614 69.7138 27.9949 70.2667 28.0759L72.4297 28.3929C73.0563 28.4846 73.6467 28.0753 73.7804 27.4564C73.9271 26.7768 73.4693 26.1146 72.7816 26.0121L70.9019 25.7319C70.0107 25.5991 69.3648 24.8554 69.1412 23.9825C68.8183 22.7224 68.2121 21.8227 67.3679 20.5694C67.1721 20.2788 67.1505 19.9018 67.2972 19.5837C70.6465 12.321 68.5139 6.52875 67.4519 4.38849C67.1669 3.81432 66.5681 3.48254 65.9317 3.55831C60.981 4.14765 56.1743 8.80828 53.8574 11.3937C53.4507 11.8475 52.8628 12.0979 52.2548 12.057L50.0001 11.9057ZM42.7338 19.1137C43.3762 19.1137 43.9922 19.3667 44.4465 19.8173C44.9007 20.2679 45.1559 20.8791 45.1559 21.5163C45.1559 22.1535 44.9007 22.7646 44.4465 23.2152C43.9922 23.6658 43.3762 23.9189 42.7338 23.9189C42.0915 23.9189 41.4753 23.6658 41.0211 23.2152C40.5668 22.7646 40.3118 22.1535 40.3118 21.5163C40.3118 20.8791 40.5668 20.2679 41.0211 19.8173C41.4753 19.3667 42.0915 19.1137 42.7338 19.1137ZM57.2664 19.1137C57.9088 19.1137 58.5248 19.3667 58.9791 19.8173C59.4333 20.2679 59.6885 20.8791 59.6885 21.5163C59.6885 22.1535 59.4333 22.7646 58.9791 23.2152C58.5248 23.6658 57.9088 23.9189 57.2664 23.9189C56.624 23.9189 56.0079 23.6658 55.5537 23.2152C55.0994 22.7646 54.8443 22.1535 54.8443 21.5163C54.8443 20.8791 55.0994 20.2679 55.5537 19.8173C56.0079 19.3667 56.624 19.1137 57.2664 19.1137ZM48.9832 30.3519C49.21 29.9279 49.1516 29.421 48.9338 28.9922L48.6744 28.4813C48.1723 27.4922 48.8909 26.3216 50.0001 26.3216C51.1093 26.3216 51.8278 27.4922 51.3258 28.4813L51.0664 28.9922C50.8487 29.421 50.7901 29.9279 51.0169 30.3519C51.6444 31.5254 52.8297 32.3281 54.2388 32.3281C54.5091 32.3281 54.7764 32.2982 55.036 32.2403C55.3374 32.173 55.6624 32.2893 55.8068 32.5623C55.9744 32.8793 55.8339 33.2754 55.4871 33.3671C55.0833 33.474 54.6639 33.5294 54.2388 33.5294C53.589 33.5294 52.9702 33.4034 52.4046 33.1766C51.0548 32.6355 48.9453 32.6355 47.5955 33.1766C47.0299 33.4034 46.4112 33.5294 45.7615 33.5294C45.3615 33.5294 44.9667 33.4804 44.585 33.3856C44.21 33.2925 44.0748 32.8542 44.2853 32.5302C44.4409 32.2906 44.7393 32.1941 45.019 32.252C45.2614 32.3023 45.51 32.3281 45.7615 32.3281C47.1705 32.3281 48.3557 31.5254 48.9832 30.3519Z" fill="#6504B5"/>
</svg>
