<svg width="40" height="40" viewBox="0 0 40 40" fill="none" xmlns="http://www.w3.org/2000/svg">
    <path d="M29.8842 25.5685L27.7261 23.4074L29.8842 21.2494C30.5979 20.5419 31.1648 19.7004 31.5524 18.7733C31.94 17.8461 32.1407 16.8515 32.1429 15.8466C32.1451 14.8417 31.9488 13.8462 31.5652 12.9173C31.1817 11.9885 30.6184 11.1445 29.9078 10.434C29.1973 9.72336 28.3533 9.16012 27.4245 8.77657C26.4956 8.39302 25.5001 8.19671 24.4952 8.19891C23.4903 8.20111 22.4957 8.40178 21.5685 8.7894C20.6414 9.17701 19.7999 9.74394 19.0924 10.4576L16.9344 12.6172L14.7748 10.4592L16.9359 8.30112C18.9395 6.2975 21.657 5.17188 24.4906 5.17188C27.3241 5.17188 30.0416 6.2975 32.0453 8.30112C34.0489 10.3047 35.1745 13.0222 35.1745 15.8558C35.1745 18.6893 34.0489 21.4068 32.0453 23.4105L29.8857 25.5685H29.8842ZM25.5681 29.8846L23.4085 32.0426C21.4049 34.0463 18.6874 35.1719 15.8538 35.1719C13.0203 35.1719 10.3028 34.0463 8.29917 32.0426C6.29555 30.039 5.16992 27.3215 5.16992 24.488C5.16992 21.6544 6.29555 18.9369 8.29917 16.9333L10.4587 14.7752L12.6168 16.9363L10.4587 19.0944C9.74504 19.8019 9.17811 20.6433 8.79049 21.5705C8.40288 22.4976 8.20221 23.4922 8.20001 24.4972C8.19781 25.5021 8.39412 26.4976 8.77767 27.4264C9.16122 28.3553 9.72446 29.1992 10.4351 29.9098C11.1456 30.6204 11.9896 31.1836 12.9184 31.5672C13.8473 31.9507 14.8428 32.147 15.8477 32.1448C16.8526 32.1426 17.8472 31.942 18.7744 31.5544C19.7015 31.1667 20.543 30.5998 21.2505 29.8861L23.4085 27.7281L25.5681 29.8861V29.8846ZM24.4875 13.6962L26.6471 15.8558L15.8554 26.646L13.6958 24.488L24.4875 13.6978V13.6962Z" fill="white"/>
</svg>
