<svg width="34" height="34" viewBox="0 0 34 34" fill="none" xmlns="http://www.w3.org/2000/svg">
    <path d="M17.0742 27.3561L23.3484 21.0818C24.5892 19.8409 25.4342 18.26 25.7764 16.5389C26.1187 14.8178 25.9429 13.0338 25.2714 11.4126C24.5998 9.79142 23.4626 8.40575 22.0035 7.43086C20.5444 6.45596 18.829 5.93561 17.0742 5.93561C15.3194 5.93561 13.604 6.45596 12.1449 7.43086C10.6858 8.40575 9.5486 9.79142 8.87703 11.4126C8.20545 13.0338 8.02969 14.8178 8.37197 16.5389C8.71425 18.26 9.5592 19.8409 10.8 21.0818L17.0742 27.3561ZM17.0742 30.9406L9.0077 22.8741C7.41232 21.2787 6.32585 19.2461 5.88569 17.0332C5.44554 14.8203 5.67146 12.5266 6.53488 10.4421C7.39831 8.35767 8.86046 6.57604 10.7364 5.32256C12.6124 4.06907 14.818 3.40002 17.0742 3.40002C19.3304 3.40002 21.536 4.06907 23.412 5.32256C25.2879 6.57604 26.7501 8.35767 27.6135 10.4421C28.4769 12.5266 28.7029 14.8203 28.2627 17.0332C27.8225 19.2461 26.7361 21.2787 25.1407 22.8741L17.0742 30.9406ZM17.0742 17.3427C17.7465 17.3427 18.3913 17.0756 18.8667 16.6002C19.3422 16.1247 19.6092 15.4799 19.6092 14.8076C19.6092 14.1353 19.3422 13.4905 18.8667 13.0151C18.3913 12.5397 17.7465 12.2726 17.0742 12.2726C16.4019 12.2726 15.7571 12.5397 15.2817 13.0151C14.8062 13.4905 14.5392 14.1353 14.5392 14.8076C14.5392 15.4799 14.8062 16.1247 15.2817 16.6002C15.7571 17.0756 16.4019 17.3427 17.0742 17.3427ZM17.0742 19.8777C15.7295 19.8777 14.4399 19.3435 13.4891 18.3927C12.5383 17.4419 12.0041 16.1523 12.0041 14.8076C12.0041 13.4629 12.5383 12.1733 13.4891 11.2225C14.4399 10.2717 15.7295 9.73753 17.0742 9.73753C18.4189 9.73753 19.7085 10.2717 20.6593 11.2225C21.6101 12.1733 22.1443 13.4629 22.1443 14.8076C22.1443 16.1523 21.6101 17.4419 20.6593 18.3927C19.7085 19.3435 18.4189 19.8777 17.0742 19.8777Z" fill="#1C1B18"/>
    <path d="M17.0742 17.3427C17.7465 17.3427 18.3913 17.0756 18.8667 16.6002C19.3422 16.1247 19.6092 15.4799 19.6092 14.8076C19.6092 14.1353 19.3422 13.4905 18.8667 13.0151C18.3913 12.5397 17.7465 12.2726 17.0742 12.2726C16.4019 12.2726 15.7571 12.5397 15.2817 13.0151C14.8062 13.4905 14.5392 14.1353 14.5392 14.8076C14.5392 15.4799 14.8062 16.1247 15.2817 16.6002C15.7571 17.0756 16.4019 17.3427 17.0742 17.3427Z" fill="#1C1B18"/>
</svg>
