<svg width="50" height="50" viewBox="0 0 50 50" fill="none" xmlns="http://www.w3.org/2000/svg">
    <rect width="50" height="50" rx="25" fill="white"/>
    <path d="M36.5745 34.3837L36.2881 34.7339L36.608 35.0537L46.1497 44.5954C46.3482 44.8024 46.4579 45.0788 46.4554 45.3657C46.4529 45.6539 46.3374 45.9295 46.1336 46.1333C45.9298 46.3371 45.6541 46.4527 45.3659 46.4552C45.0791 46.4577 44.8026 46.3479 44.5956 46.1494L35.054 36.6077L34.7341 36.2879L34.3839 36.5742C31.3019 39.0942 27.3693 40.3331 23.3995 40.0348C19.4297 39.7366 15.7263 37.9239 13.0555 34.9717C10.3847 32.0195 8.95076 28.1538 9.05026 24.174C9.14977 20.1942 10.7751 16.4049 13.5901 13.5899C16.4051 10.7749 20.1944 9.14953 24.1742 9.05002C28.154 8.95051 32.0198 10.3845 34.972 13.0553C37.9241 15.7261 39.7368 19.4294 40.0351 23.3993C40.3334 27.3691 39.0944 31.3017 36.5745 34.3837ZM24.5877 37.8803H24.5882C28.1123 37.8763 31.491 36.4746 33.9829 33.9827C36.4748 31.4907 37.8765 28.1121 37.8805 24.588V24.5874C37.8805 21.9583 37.1009 19.3883 35.6403 17.2023C34.1796 15.0163 32.1036 13.3125 29.6746 12.3064C27.2457 11.3003 24.5729 11.0371 21.9943 11.55C19.4158 12.0629 17.0472 13.3289 15.1882 15.1879C13.3292 17.047 12.0631 19.4155 11.5502 21.9941C11.0373 24.5727 11.3006 27.2454 12.3067 29.6744C13.3128 32.1033 15.0165 34.1794 17.2025 35.64C19.3885 37.1006 21.9586 37.8803 24.5877 37.8803Z" stroke="#1C1B18"/>
    <path d="M21.575 16.1823C21.5836 16.1806 21.5922 16.1789 21.6036 16.1767C22.178 16.0953 22.9626 17.0287 23.1563 18.3939C23.3427 19.722 22.8575 20.8361 22.3007 20.9465C22.2921 20.9482 22.2836 20.9499 22.2722 20.9522C21.6978 21.0335 20.9132 20.1001 20.7194 18.735C20.5331 17.4069 21.0183 16.2928 21.575 16.1823ZM28.4091 16.1973C28.4691 16.1855 28.5279 16.1827 28.5861 16.1919C29.1602 16.2738 29.654 17.3866 29.4561 18.7523C29.2755 19.9959 28.6115 20.8517 28.0719 20.9588C28.0119 20.9707 27.9531 20.9734 27.8949 20.9642C27.3208 20.8823 26.8264 19.7667 27.0249 18.4038C27.2049 17.1574 27.8695 16.3044 28.4091 16.1973ZM17.2294 20.9022C17.238 20.9005 17.2466 20.8988 17.258 20.8966C17.8324 20.8153 18.617 21.7486 18.8107 23.1138C18.9971 24.4419 18.5119 25.556 17.9551 25.6664C17.9466 25.6681 17.938 25.6698 17.9294 25.6715C17.355 25.7529 16.5704 24.8195 16.3767 23.4543C16.1904 22.1262 16.6727 21.0127 17.2294 20.9022ZM31.9451 20.9322C32.005 20.9203 32.0638 20.9175 32.122 20.9267C32.6962 21.0087 33.1905 22.1243 32.9921 23.4871C32.8115 24.7307 32.1474 25.5865 31.6078 25.6936C31.5479 25.7055 31.4891 25.7082 31.4309 25.699C30.8567 25.6171 30.3624 24.5015 30.5608 23.1386C30.7414 21.895 31.4055 21.0392 31.9451 20.9322ZM24.5989 23.5559C24.7331 23.5293 24.873 23.5164 25.0123 23.5155C25.8879 23.5168 26.672 24.0734 26.9664 24.8993C26.9806 24.941 27.0005 24.9815 27.0205 25.0221C27.5642 26.3416 28.4747 27.4013 29.5334 27.9361C29.5665 27.9533 29.599 27.9676 29.6338 27.9785C29.7137 28.0071 29.7913 28.0392 29.8643 28.0782C29.8837 28.0862 29.9008 28.0976 29.9202 28.1056C29.9236 28.1079 29.9265 28.1074 29.9299 28.1097C29.9475 28.124 29.9675 28.1348 29.9875 28.1457C30.6257 28.5206 31.0208 29.2108 31.0214 29.9466C31.0187 30.9353 30.3164 31.7927 29.3485 31.9848C29.2144 32.0114 29.0745 32.0243 28.9352 32.0252C28.6857 32.0243 28.4392 31.9782 28.2013 31.886C28.1916 31.882 28.1819 31.8779 28.1694 31.8745C27.8128 31.7524 27.4391 31.5743 27.0752 31.4002C27.0712 31.3982 27.0671 31.3963 27.0631 31.3943C26.3591 31.0563 25.6965 30.7382 24.9967 30.7354C24.8391 30.734 24.6735 30.752 24.5051 30.7855C23.994 30.8868 23.521 31.1202 23.0189 31.3711C22.5327 31.613 22.03 31.8611 21.5218 31.962C21.3591 31.9942 21.2049 32.01 21.0536 32.0103C19.9046 32.0069 18.9744 31.0727 18.975 29.9242C18.9751 29.117 19.4517 28.3785 20.1886 28.0394C20.2075 28.0297 20.224 28.0235 20.24 28.0144C21.0836 27.7194 22.2253 26.9676 22.9863 25.0747C22.9983 25.0456 23.0075 25.0171 23.0166 24.9886C23.2444 24.252 23.8509 23.7043 24.5989 23.5559ZM21.4051 15.3258C20.3002 15.545 19.6088 17.1007 19.8562 18.8558C20.1086 20.6515 21.2442 21.9781 22.393 21.8155C22.4193 21.8132 22.445 21.8081 22.4707 21.803C23.5756 21.5838 24.2669 20.0282 24.0196 18.2731C23.7672 16.4774 22.6315 15.1507 21.4827 15.3134C21.4536 15.3162 21.4308 15.3207 21.4051 15.3258ZM28.2392 15.3408C27.2656 15.534 26.3841 16.7297 26.1597 18.2758C25.9018 20.0718 26.6203 21.6593 27.7691 21.826C27.9278 21.8479 28.0842 21.8436 28.2413 21.8124C29.2148 21.6193 30.0963 20.4236 30.3202 18.8746C30.5786 17.0815 29.8595 15.4912 28.7107 15.3244C28.5526 15.3053 28.3933 15.3102 28.2392 15.3408ZM17.0595 20.0457C15.9546 20.265 15.2632 21.8206 15.5106 23.5757C15.763 25.3714 16.8986 26.698 18.0474 26.5354C18.0731 26.5303 18.0994 26.528 18.1222 26.5235C19.2271 26.3043 19.9185 24.7487 19.6712 22.9935C19.4187 21.1979 18.2831 19.8712 17.1343 20.0339C17.1109 20.0355 17.0852 20.0406 17.0595 20.0457ZM31.7751 20.0756C30.8015 20.2688 29.9201 21.4645 29.6962 23.0134C29.4383 24.8095 30.1568 26.3969 31.3057 26.5636C31.4643 26.5856 31.6208 26.5813 31.7778 26.5501C32.7514 26.3569 33.6328 25.1612 33.8567 23.6123C34.1175 21.8157 33.3961 20.2288 32.2472 20.0621C32.0886 20.0402 31.9321 20.0445 31.7751 20.0756ZM24.429 22.6994C23.3612 22.9113 22.4997 23.6994 22.1842 24.7264C21.6335 26.1087 20.836 26.8901 19.9153 27.2004C19.9125 27.201 19.9125 27.201 19.9102 27.2044C19.8742 27.2175 19.8445 27.2323 19.8234 27.2454C18.8123 27.7131 18.1063 28.7315 18.105 29.9217C18.1025 31.5543 19.422 32.8801 21.0546 32.8826C21.2744 32.8835 21.4862 32.8593 21.6946 32.8179C22.8509 32.5885 23.8214 31.8113 24.6779 31.6414C24.7864 31.6199 24.8937 31.6075 24.9976 31.6076C25.8168 31.6083 26.8289 32.3423 27.8912 32.7012C28.2153 32.8239 28.568 32.8963 28.9333 32.898C29.1325 32.9001 29.3301 32.8787 29.5185 32.8413C30.8718 32.5728 31.8937 31.3819 31.8942 29.9485C31.8976 28.8588 31.3082 27.9074 30.4287 27.3934C30.402 27.3631 30.3586 27.3391 30.2947 27.3162C30.2822 27.3127 30.2685 27.3036 30.2559 27.3001C30.1504 27.2469 30.0403 27.2005 29.9285 27.1604C29.0974 26.7407 28.2836 25.8546 27.7929 24.6077L27.7872 24.6089C27.3796 23.4671 26.294 22.6469 25.0113 22.6432C24.815 22.6406 24.6203 22.6614 24.429 22.6994Z" fill="#1C1B18"/>
    <path d="M24.5989 23.5559C24.7331 23.5293 24.873 23.5164 25.0123 23.5155C25.8879 23.5168 26.672 24.0734 26.9664 24.8993C26.9806 24.941 27.0005 24.9815 27.0205 25.0221C27.5642 26.3416 28.4747 27.4013 29.5334 27.9361C29.5665 27.9533 29.599 27.9676 29.6338 27.9785C29.7137 28.0071 29.7913 28.0392 29.8643 28.0782C29.8837 28.0862 29.9008 28.0976 29.9202 28.1056C29.9236 28.1079 29.9265 28.1074 29.9299 28.1097C29.9475 28.124 29.9675 28.1348 29.9875 28.1457C30.6257 28.5206 31.0208 29.2108 31.0214 29.9466C31.0187 30.9353 30.3164 31.7927 29.3485 31.9848C29.2144 32.0114 29.0745 32.0243 28.9352 32.0252C28.6857 32.0243 28.4392 31.9782 28.2013 31.886C28.1916 31.882 28.1819 31.8779 28.1694 31.8745C27.8128 31.7524 27.4391 31.5743 27.0752 31.4002L27.0631 31.3943C26.3591 31.0563 25.6965 30.7382 24.9967 30.7354C24.8391 30.734 24.6735 30.752 24.5051 30.7855C23.994 30.8868 23.521 31.1202 23.0189 31.3711C22.5327 31.613 22.03 31.8611 21.5218 31.962C21.3591 31.9942 21.2049 32.01 21.0536 32.0103C19.9046 32.0069 18.9744 31.0727 18.975 29.9242C18.9751 29.117 19.4517 28.3785 20.1886 28.0394C20.2075 28.0297 20.224 28.0235 20.24 28.0144C21.0836 27.7194 22.2253 26.9676 22.9863 25.0747C22.9983 25.0456 23.0075 25.0171 23.0166 24.9886C23.2444 24.252 23.8509 23.7043 24.5989 23.5559Z" fill="#1C1B18"/>
    <path d="M21.575 16.1823L21.6036 16.1767C22.178 16.0953 22.9626 17.0287 23.1563 18.3939C23.3427 19.722 22.8575 20.8361 22.3007 20.9465L22.2722 20.9522C21.6978 21.0335 20.9132 20.1001 20.7194 18.735C20.5331 17.4069 21.0183 16.2928 21.575 16.1823Z" fill="#1C1B18"/>
    <path d="M28.4091 16.1973C28.4691 16.1855 28.5279 16.1827 28.5861 16.1919C29.1602 16.2738 29.654 17.3866 29.4561 18.7523C29.2755 19.9959 28.6115 20.8517 28.0719 20.9588C28.0119 20.9707 27.9531 20.9734 27.8949 20.9642C27.3208 20.8823 26.8264 19.7667 27.0249 18.4038C27.2049 17.1574 27.8695 16.3044 28.4091 16.1973Z" fill="#1C1B18"/>
    <path d="M31.9451 20.9322C32.005 20.9203 32.0638 20.9175 32.122 20.9267C32.6962 21.0087 33.1905 22.1243 32.9921 23.4871C32.8115 24.7307 32.1474 25.5865 31.6078 25.6936C31.5479 25.7055 31.4891 25.7082 31.4309 25.699C30.8567 25.6171 30.3624 24.5015 30.5608 23.1386C30.7414 21.895 31.4055 21.0392 31.9451 20.9322Z" fill="#1C1B18"/>
    <path d="M17.2294 20.9022L17.258 20.8966C17.8324 20.8153 18.617 21.7486 18.8107 23.1138C18.9971 24.4419 18.5119 25.556 17.9551 25.6664L17.9294 25.6715C17.355 25.7529 16.5704 24.8195 16.3767 23.4543C16.1904 22.1262 16.6727 21.0127 17.2294 20.9022Z" fill="#1C1B18"/>
</svg>
