<svg width="92" height="92" viewBox="0 0 100 100" fill="none" xmlns="http://www.w3.org/2000/svg">
    <path d="M33.2547 46.1951C33.9088 46.1951 34.9269 47.4527 35.0374 49.4197C35.1526 51.4466 34.2635 52.7963 33.6002 52.8332H33.5679C32.9138 52.8332 31.8957 51.5756 31.7852 49.604C31.67 47.5771 32.5591 46.2319 33.2224 46.1905L33.2547 46.1951Z" fill="#6504B5"/>
    <path d="M23.6545 48.1253C24.3824 48.1253 25.5202 49.1295 26.0914 50.751C26.7686 52.6628 26.2895 54.206 25.663 54.4271C25.5985 54.4501 25.5294 54.4593 25.4557 54.4593C24.7279 54.4593 23.59 53.4551 23.0188 51.8336C22.3416 49.9218 22.8207 48.3786 23.4472 48.1575C23.5117 48.1345 23.5762 48.1253 23.6545 48.1253Z" fill="#6504B5"/>
    <path d="M20.0015 55.7676C20.7293 55.7676 21.8672 56.7718 22.4384 58.3934C23.1156 60.3051 22.6319 61.8483 22.01 62.0694C21.9455 62.0925 21.8764 62.1017 21.8027 62.1017C21.0748 62.1017 19.937 61.0974 19.3658 59.4759C18.6886 57.5642 19.1723 56.021 19.7942 55.7998C19.8587 55.7768 19.9278 55.7676 20.0015 55.7676Z" fill="#6504B5"/>
    <path d="M31.0573 57.4029C32.103 57.4029 33.0658 57.9742 33.5633 58.9001L33.6462 59.0383C35.2632 61.5074 37.1058 62.2583 38.3956 62.4472C38.4095 62.4518 38.4221 62.4552 38.4348 62.4587C38.4475 62.4621 38.4601 62.4656 38.474 62.4702C39.5519 62.7282 40.3903 63.5942 40.6068 64.6768C40.9154 66.22 39.9112 67.7263 38.3726 68.035C38.1699 68.0764 37.958 68.0949 37.7277 68.0949C37.0044 68.0949 36.2351 67.8876 35.4935 67.6849C34.7426 67.4822 33.9687 67.2749 33.2086 67.2749C32.9552 67.2749 32.7065 67.2979 32.4762 67.344C31.4622 67.5459 30.567 68.2184 29.6996 68.8701L29.6892 68.878C29.2331 69.2235 28.7586 69.5782 28.298 69.8408C28.2911 69.8454 28.283 69.85 28.2749 69.8546C28.2669 69.8592 28.2588 69.8638 28.2519 69.8684C27.9571 70.0527 27.6346 70.1816 27.303 70.2507C27.1141 70.2876 26.9252 70.306 26.7363 70.306C25.3866 70.306 24.2119 69.3432 23.9447 68.0119C23.7467 67.0215 24.0968 65.9896 24.8522 65.3171C24.8753 65.2986 24.8983 65.2756 24.9167 65.2526C24.9444 65.2342 24.972 65.2157 24.995 65.1973C25.0826 65.1282 25.1793 65.0637 25.2807 65.0038C25.3177 64.9836 25.3523 64.9584 25.3863 64.9338C25.3987 64.9247 25.4111 64.9157 25.4235 64.9071C26.787 63.8384 27.7866 62.0694 28.1874 60.0379C28.2058 59.9734 28.2243 59.9043 28.2335 59.8352C28.4085 58.6467 29.316 57.6885 30.4907 57.4536C30.6796 57.4214 30.8685 57.4029 31.0573 57.4029Z" fill="#6504B5"/>
    <path d="M40.6759 51.6171C41.33 51.6171 42.3481 52.8747 42.4587 54.8463C42.5738 56.8732 41.6847 58.2183 41.0214 58.2552H40.9892C40.335 58.2552 39.317 56.9976 39.2064 55.0259C39.0912 52.999 39.9803 51.6539 40.6437 51.6124L40.6759 51.6171Z" fill="#6504B5"/>
    <path fill-rule="evenodd" clip-rule="evenodd" d="M35.0374 49.4197C34.9269 47.4527 33.9088 46.1951 33.2547 46.1951L33.2224 46.1905C32.5591 46.2319 31.67 47.5771 31.7852 49.604C31.8957 51.5756 32.9138 52.8332 33.5679 52.8332H33.6002C34.2635 52.7963 35.1526 51.4466 35.0374 49.4197ZM26.0914 50.751C25.5202 49.1295 24.3824 48.1253 23.6545 48.1253C23.5762 48.1253 23.5117 48.1345 23.4472 48.1575C22.8207 48.3786 22.3416 49.9218 23.0188 51.8336C23.59 53.4551 24.7279 54.4593 25.4557 54.4593C25.5294 54.4593 25.5985 54.4501 25.663 54.4271C26.2895 54.206 26.7686 52.6628 26.0914 50.751ZM42.4587 54.8463C42.3481 52.8747 41.33 51.6171 40.6759 51.6171L40.6437 51.6124C39.9803 51.6539 39.0912 52.999 39.2064 55.0259C39.317 56.9976 40.335 58.2552 40.9892 58.2552H41.0214C41.6847 58.2183 42.5738 56.8732 42.4587 54.8463ZM22.4384 58.3934C21.8672 56.7718 20.7293 55.7676 20.0015 55.7676C19.9278 55.7676 19.8587 55.7768 19.7942 55.7998C19.1723 56.021 18.6886 57.5642 19.3658 59.4759C19.937 61.0974 21.0748 62.1017 21.8027 62.1017C21.8764 62.1017 21.9455 62.0925 22.01 62.0694C22.6319 61.8483 23.1156 60.3051 22.4384 58.3934ZM33.5633 58.9001C33.0658 57.9742 32.103 57.4029 31.0573 57.4029C30.8685 57.4029 30.6796 57.4214 30.4907 57.4536C29.316 57.6885 28.4085 58.6467 28.2335 59.8352C28.2243 59.9043 28.2058 59.9734 28.1874 60.0379C27.7866 62.0694 26.787 63.8384 25.4235 64.9071C25.4111 64.9157 25.3987 64.9247 25.3863 64.9338C25.3523 64.9584 25.3177 64.9836 25.2807 65.0038C25.1793 65.0637 25.0826 65.1282 24.995 65.1973C24.972 65.2157 24.9444 65.2342 24.9167 65.2526C24.8983 65.2756 24.8753 65.2986 24.8522 65.3171C24.0968 65.9896 23.7467 67.0215 23.9447 68.0119C24.2119 69.3432 25.3866 70.306 26.7363 70.306C26.9252 70.306 27.1141 70.2876 27.303 70.2507C27.6346 70.1816 27.9571 70.0527 28.2519 69.8684C28.2588 69.8638 28.2669 69.8592 28.2749 69.8546C28.283 69.85 28.2911 69.8454 28.298 69.8408C28.7586 69.5782 29.2331 69.2235 29.6892 68.878L29.6996 68.8701C30.567 68.2184 31.4622 67.5459 32.4762 67.344C32.7065 67.2979 32.9552 67.2749 33.2086 67.2749C33.9687 67.2749 34.7426 67.4822 35.4935 67.6849C36.2351 67.8876 37.0044 68.0949 37.7277 68.0949C37.958 68.0949 38.1699 68.0764 38.3726 68.035C39.9112 67.7263 40.9154 66.22 40.6068 64.6768C40.3903 63.5942 39.5519 62.7282 38.474 62.4702C38.4601 62.4656 38.4475 62.4621 38.4348 62.4587C38.4221 62.4552 38.4095 62.4518 38.3956 62.4472C37.1058 62.2583 35.2632 61.5074 33.6462 59.0383L33.5633 58.9001ZM33.1441 44.8177C33.181 44.8131 33.2178 44.8131 33.2547 44.8131C34.8716 44.8131 36.272 46.8078 36.4148 49.346C36.5622 51.9395 35.3323 54.123 33.6739 54.2152C33.637 54.2198 33.6002 54.2198 33.5633 54.2198C31.951 54.2198 30.546 52.2205 30.4032 49.6869C30.2558 47.0934 31.4857 44.9098 33.1441 44.8177ZM22.9866 46.8538C23.2031 46.7801 23.4288 46.7433 23.6545 46.7433C25.078 46.7433 26.6442 48.1759 27.3951 50.2904C28.2611 52.7411 27.6899 55.178 26.1237 55.7307C25.9072 55.8045 25.6814 55.8413 25.4557 55.8413C24.0323 55.8413 22.4614 54.4087 21.7152 52.2942C20.8491 49.8435 21.4203 47.4066 22.9866 46.8538ZM40.6759 50.2351C42.2928 50.2351 43.6932 52.2297 43.8406 54.768C43.988 57.3615 42.7581 59.5404 41.0997 59.6371C41.0629 59.6417 41.026 59.6417 40.9892 59.6417C39.3722 59.6417 37.9672 57.6471 37.8244 55.1089C37.677 52.5153 38.907 50.3318 40.5653 50.2397C40.6022 50.2351 40.6391 50.2351 40.6759 50.2351ZM19.3335 54.4962C19.5501 54.4225 19.7758 54.3856 20.0015 54.3856C21.4249 54.3856 22.9958 55.8183 23.7467 57.9327C24.6081 60.3834 24.0415 62.8203 22.4706 63.3731C22.2541 63.4468 22.0284 63.4836 21.8027 63.4836C20.3792 63.4836 18.8084 62.051 18.0621 59.9366C17.1961 57.4859 17.7673 55.049 19.3335 54.4962ZM30.2189 56.1039C30.4999 56.0486 30.7809 56.021 31.0573 56.021C32.619 56.021 34.047 56.887 34.7702 58.2459C35.9311 60.0333 37.2716 60.9086 38.649 61.0882H38.6582C38.7089 61.0974 38.755 61.1113 38.7918 61.1251C40.3442 61.4982 41.6203 62.7374 41.9565 64.405C42.4126 66.6991 40.9293 68.9286 38.6352 69.3893C38.3265 69.4492 38.0225 69.4768 37.7185 69.4768C36.81 69.4768 35.9347 69.24 35.1249 69.021C34.4277 68.8323 33.7791 68.6569 33.1994 68.6569C33.0382 68.6569 32.8861 68.6707 32.7387 68.6983C32.0281 68.8404 31.2911 69.3948 30.5041 69.9868C30.0156 70.3542 29.5079 70.7361 28.9751 71.0431C28.5833 71.2928 28.1432 71.4822 27.6661 71.5886L22.5812 68.2883C22.2725 66.7589 22.8346 65.2572 23.9263 64.2898C23.954 64.2437 24.0092 64.1977 24.0922 64.147C24.1014 64.1424 24.1094 64.1366 24.1175 64.1309C24.1256 64.1251 24.1336 64.1194 24.1428 64.1148C24.2764 64.0088 24.4192 63.9121 24.5666 63.8245C25.6169 63.0046 26.5152 61.5305 26.8561 59.6417H26.8653C27.1187 57.9189 28.4177 56.4632 30.2189 56.1039Z" fill="#6504B5"/>
    <path d="M52.6255 18.0947C52.6393 18.0947 52.6531 18.0947 52.6715 18.0947C53.5882 18.1454 54.5188 19.836 54.399 22.015C54.2792 24.134 53.1829 25.7141 52.2846 25.7141C52.2708 25.7141 52.2569 25.7141 52.2385 25.7141C51.3218 25.6634 50.3913 23.9728 50.511 21.7938C50.6308 19.6748 51.7272 18.0947 52.6255 18.0947ZM63.2299 20.223C63.3266 20.223 63.4187 20.2368 63.5062 20.2691C64.3723 20.5731 64.7961 22.4526 64.0683 24.5117C63.4049 26.3866 62.1104 27.5106 61.2398 27.5106C61.1431 27.5106 61.0509 27.4968 60.9634 27.4646C60.0974 27.1605 59.6736 25.2764 60.4014 23.2219C61.0648 21.3424 62.3592 20.223 63.2299 20.223ZM44.4257 24.0833C44.4395 24.0833 44.4534 24.0833 44.4718 24.0833C45.3885 24.134 46.319 25.8246 46.1993 28.0035C46.0795 30.1226 44.9831 31.7026 44.0848 31.7026C44.071 31.7026 44.0572 31.7026 44.0434 31.7026C43.1267 31.652 42.1961 29.9613 42.3159 27.7824C42.4357 25.6634 43.5274 24.0833 44.4257 24.0833ZM67.2606 28.6623C67.3574 28.6623 67.4495 28.6761 67.537 28.7083C68.4031 29.0124 68.8269 30.8965 68.099 32.951C67.4357 34.8259 66.1412 35.9499 65.2706 35.9499C65.1738 35.9499 65.0817 35.9361 64.9942 35.9039C64.1281 35.5998 63.7043 33.7157 64.4322 31.6612C65.0955 29.7863 66.39 28.6623 67.2606 28.6623ZM55.0485 30.4727C55.265 30.4727 55.4862 30.4957 55.7027 30.5372C57.0616 30.809 58.1073 31.9145 58.31 33.2873C58.3192 33.3564 58.3376 33.4255 58.3561 33.4946C58.7937 35.7104 59.8809 37.6359 61.3596 38.7922C61.4056 38.829 61.4517 38.8613 61.5024 38.8889C61.6175 38.958 61.7281 39.0317 61.8294 39.1146C61.8571 39.1331 61.8801 39.1561 61.9078 39.1745C61.9124 39.1791 61.917 39.1791 61.9216 39.1837C61.9446 39.2114 61.9723 39.2344 61.9999 39.2575C62.8751 40.036 63.2759 41.2291 63.0502 42.3715C62.7416 43.9055 61.3872 45.0203 59.8256 45.0203C59.6091 45.0203 59.388 44.9973 59.1714 44.9558C58.7845 44.8775 58.416 44.7301 58.0751 44.5136C58.0612 44.5044 58.0474 44.4952 58.029 44.4859C57.5131 44.1865 56.9879 43.7949 56.4766 43.4126C56.4709 43.4083 56.4652 43.4041 56.4595 43.3998C55.4709 42.6583 54.5402 41.9603 53.4547 41.7404C53.2105 41.6897 52.9479 41.6667 52.6761 41.6667C51.8516 41.6667 51.0454 41.8832 50.1886 42.1181C49.3594 42.3439 48.5026 42.5742 47.6826 42.5742C47.42 42.5742 47.1759 42.5512 46.9409 42.5051C45.1582 42.1458 44.0019 40.4091 44.3566 38.6263C44.6054 37.3734 45.5728 36.3737 46.8212 36.0743C46.8534 36.0651 46.881 36.0605 46.9087 36.0513C48.3091 35.8532 50.313 35.0378 52.0773 32.3337C52.1049 32.2923 52.128 32.2508 52.151 32.2094C52.7314 31.136 53.8416 30.4727 55.0485 30.4727ZM52.6255 16.7128C50.8427 16.7128 49.2903 18.9147 49.1337 21.7155C48.9724 24.5808 50.3268 26.9901 52.1602 27.0914C52.2017 27.096 52.2431 27.096 52.2846 27.096C54.0673 27.096 55.6198 24.8941 55.7764 22.0933C55.9376 19.228 54.5833 16.8187 52.7498 16.7174C52.7038 16.7128 52.6669 16.7128 52.6255 16.7128ZM63.2299 18.841C61.659 18.841 59.9223 20.4257 59.0977 22.7566C58.1442 25.4653 58.7707 28.1509 60.5027 28.7636C60.7423 28.8465 60.9864 28.888 61.2398 28.888C62.8107 28.888 64.5473 27.3033 65.3719 24.9678C66.3255 22.2637 65.699 19.5735 63.9669 18.9608C63.7274 18.8825 63.4786 18.841 63.2299 18.841ZM44.4257 22.7013C42.643 22.7013 41.0905 24.9033 40.9339 27.7041C40.7727 30.5694 42.127 32.9787 43.9605 33.08C44.0019 33.08 44.0434 33.0846 44.0802 33.0846C45.863 33.0846 47.4154 30.8827 47.572 28.0818C47.7333 25.2165 46.3789 22.8073 44.5455 22.706C44.5086 22.7013 44.4672 22.7013 44.4257 22.7013ZM67.2606 27.2803C65.6898 27.2803 63.9531 28.865 63.1285 31.2005C62.1749 33.9092 62.8014 36.5948 64.5335 37.2075C64.7731 37.2904 65.0172 37.3319 65.2706 37.3319C66.8414 37.3319 68.5781 35.7472 69.4027 33.4117C70.3609 30.703 69.7298 28.0174 67.9977 27.4047C67.7581 27.3218 67.514 27.2803 67.2606 27.2803ZM55.0485 29.0907C53.3257 29.0907 51.7456 30.0489 50.9395 31.546C49.6588 33.5222 48.1801 34.4896 46.6553 34.6877C46.6507 34.6877 46.6507 34.6877 46.6461 34.6923C46.5862 34.7015 46.5355 34.7153 46.4987 34.7292C44.785 35.1438 43.3754 36.5073 43.0069 38.3546C42.5002 40.8882 44.1401 43.3527 46.6737 43.8594C47.0146 43.9285 47.3509 43.9562 47.6872 43.9562C49.5529 43.9562 51.2988 43.0487 52.6807 43.0487C52.8558 43.0487 53.0262 43.0625 53.1875 43.0947C54.4589 43.3481 55.804 44.7992 57.3426 45.6837C57.8079 45.9739 58.333 46.195 58.8997 46.3102C59.2083 46.3746 59.5215 46.4023 59.8256 46.4023C62.0091 46.4023 63.9623 44.8683 64.4045 42.6433C64.7454 40.9527 64.1235 39.2943 62.9166 38.2256C62.8844 38.1703 62.8245 38.1196 62.7323 38.0643C62.7139 38.0551 62.6955 38.0367 62.6771 38.0275C62.5296 37.9123 62.373 37.8064 62.2118 37.7096C61.0509 36.8021 60.0605 35.176 59.6828 33.0892H59.6736C59.3926 31.1913 57.9599 29.5836 55.9699 29.1828C55.6658 29.1183 55.3572 29.0907 55.0485 29.0907Z" fill="#6504B5"/>
    <path d="M55.0485 30.4727C55.265 30.4727 55.4862 30.4957 55.7027 30.5372C57.0616 30.809 58.1073 31.9145 58.31 33.2873C58.3192 33.3564 58.3376 33.4255 58.3561 33.4946C58.7937 35.7104 59.8809 37.6359 61.3596 38.7922C61.4056 38.829 61.4517 38.8613 61.5024 38.8889C61.6175 38.958 61.7281 39.0317 61.8294 39.1146C61.8571 39.1331 61.8801 39.1561 61.9078 39.1745C61.9124 39.1791 61.917 39.1791 61.9216 39.1837C61.9446 39.2114 61.9723 39.2344 61.9999 39.2575C62.8751 40.036 63.2759 41.2291 63.0502 42.3715C62.7416 43.9055 61.3872 45.0203 59.8256 45.0203C59.6091 45.0203 59.388 44.9973 59.1714 44.9558C58.7845 44.8775 58.416 44.7301 58.0751 44.5136C58.0612 44.5044 58.0474 44.4952 58.029 44.4859C57.5131 44.1865 56.9879 43.7949 56.4766 43.4126L56.4595 43.3998C55.4709 42.6583 54.5402 41.9603 53.4547 41.7404C53.2105 41.6897 52.9479 41.6667 52.6761 41.6667C51.8516 41.6667 51.0454 41.8832 50.1886 42.1181C49.3594 42.3439 48.5026 42.5742 47.6826 42.5742C47.42 42.5742 47.1759 42.5512 46.9409 42.5051C45.1582 42.1458 44.0019 40.4091 44.3566 38.6263C44.6054 37.3734 45.5728 36.3737 46.8212 36.0743C46.8534 36.0651 46.881 36.0605 46.9087 36.0513C48.3091 35.8532 50.313 35.0378 52.0773 32.3337C52.1049 32.2923 52.128 32.2508 52.151 32.2094C52.7314 31.136 53.8416 30.4727 55.0485 30.4727Z" fill="#6504B5"/>
    <path d="M52.6255 18.0947H52.6715C53.5882 18.1454 54.5188 19.836 54.399 22.015C54.2792 24.134 53.1829 25.7141 52.2846 25.7141H52.2385C51.3218 25.6634 50.3913 23.9728 50.511 21.7938C50.6308 19.6748 51.7272 18.0947 52.6255 18.0947Z" fill="#6504B5"/>
    <path d="M63.2299 20.223C63.3266 20.223 63.4187 20.2368 63.5062 20.2691C64.3723 20.5731 64.7961 22.4526 64.0683 24.5117C63.4049 26.3866 62.1104 27.5106 61.2398 27.5106C61.1431 27.5106 61.0509 27.4968 60.9634 27.4646C60.0974 27.1605 59.6736 25.2764 60.4014 23.2219C61.0648 21.3424 62.3592 20.223 63.2299 20.223Z" fill="#6504B5"/>
    <path d="M67.2606 28.6623C67.3574 28.6623 67.4495 28.6761 67.537 28.7083C68.4031 29.0124 68.8269 30.8965 68.099 32.951C67.4357 34.8259 66.1412 35.9499 65.2706 35.9499C65.1738 35.9499 65.0817 35.9361 64.9942 35.9039C64.1281 35.5998 63.7043 33.7157 64.4322 31.6612C65.0955 29.7863 66.39 28.6623 67.2606 28.6623Z" fill="#6504B5"/>
    <path d="M44.4257 24.0833H44.4718C45.3885 24.134 46.319 25.8246 46.1993 28.0035C46.0795 30.1226 44.9831 31.7026 44.0848 31.7026H44.0434C43.1267 31.652 42.1961 29.9613 42.3159 27.7824C42.4357 25.6634 43.5274 24.0833 44.4257 24.0833Z" fill="#6504B5"/>
    <path d="M71.4303 66.1208L70.8576 66.8212L71.4974 67.4609L94.5004 90.4639C95.0169 91.0017 95.3026 91.7204 95.2961 92.4663C95.2896 93.2148 94.9893 93.9308 94.46 94.4602C93.9307 94.9895 93.2147 95.2897 92.4661 95.2962C91.7203 95.3027 91.0016 95.017 90.4638 94.5005L67.4608 71.4975L66.8211 70.8578L66.1207 71.4304C58.6505 77.5384 49.1183 80.5415 39.496 79.8185C29.8736 79.0956 20.8973 74.7018 14.4236 67.5462C7.9499 60.3905 4.47418 51.0204 4.71538 41.3739C4.95657 31.7275 8.89621 22.5427 15.7194 15.7195C22.5426 8.89633 31.7273 4.95669 41.3738 4.7155C51.0202 4.47431 60.3904 7.95002 67.546 14.4237C74.7017 20.8974 79.0954 29.8738 79.8184 39.4961C80.5414 49.1185 77.5383 58.6506 71.4303 66.1208ZM42.3756 74.2145H42.3767C50.8177 74.2051 58.9102 70.8477 64.8789 64.879C70.8476 58.9103 74.2049 50.8178 74.2144 42.3768V42.3757C74.2144 36.0786 72.3471 29.9228 68.8486 24.687C65.3501 19.4511 60.3776 15.3702 54.5598 12.9604C48.742 10.5506 42.3403 9.9201 36.1641 11.1486C29.988 12.3771 24.3148 15.4095 19.8621 19.8622C15.4094 24.315 12.377 29.9881 11.1485 36.1642C9.91998 42.3404 10.5505 48.7421 12.9603 54.5599C15.3701 60.3777 19.451 65.3502 24.6868 68.8487C29.9227 72.3472 36.0784 74.2145 42.3756 74.2145Z" stroke="#6504B5" stroke-width="2"/>
</svg>
