<svg width="41" height="40" viewBox="0 0 41 40" fill="none" xmlns="http://www.w3.org/2000/svg">
    <path d="M21.7276 6.25406C21.7276 5.92199 21.8595 5.60352 22.0943 5.36872C22.3291 5.13391 22.6476 5.002 22.9796 5.002C26.2991 5.00564 29.4816 6.32594 31.8288 8.67321C34.1761 11.0205 35.4964 14.203 35.5 17.5226C35.5 17.8546 35.3681 18.1731 35.1333 18.4079C34.8985 18.6427 34.58 18.7746 34.248 18.7746C33.9159 18.7746 33.5974 18.6427 33.3626 18.4079C33.1278 18.1731 32.9959 17.8546 32.9959 17.5226C32.9929 14.867 31.9367 12.321 30.0589 10.4432C28.1811 8.56535 25.6352 7.5091 22.9796 7.50611C22.6476 7.50611 22.3291 7.3742 22.0943 7.13939C21.8595 6.90459 21.7276 6.58612 21.7276 6.25406ZM22.9796 12.5143C24.3079 12.5143 25.5817 13.042 26.5209 13.9812C27.4601 14.9204 27.9878 16.1943 27.9878 17.5226C27.9878 17.8546 28.1197 18.1731 28.3545 18.4079C28.5893 18.6427 28.9077 18.7746 29.2398 18.7746C29.5719 18.7746 29.8903 18.6427 30.1251 18.4079C30.3599 18.1731 30.4918 17.8546 30.4918 17.5226C30.4899 15.5308 29.6978 13.6211 28.2894 12.2127C26.881 10.8043 24.9714 10.0122 22.9796 10.0102C22.6476 10.0102 22.3291 10.1421 22.0943 10.3769C21.8595 10.6118 21.7276 10.9302 21.7276 11.2623C21.7276 11.5943 21.8595 11.9128 22.0943 12.1476C22.3291 12.3824 22.6476 12.5143 22.9796 12.5143ZM34.3644 25.9602C35.09 26.6878 35.4974 27.6734 35.4974 28.7009C35.4974 29.7285 35.09 30.7141 34.3644 31.4417L33.225 32.7551C22.9708 42.5725 -1.98228 17.6252 7.68346 7.33834L9.1233 6.08628C9.8517 5.38097 10.8285 4.99079 11.8424 5.00017C12.8562 5.00954 13.8256 5.41771 14.5409 6.13636C14.5797 6.17518 16.8997 9.18888 16.8997 9.18888C17.5881 9.9121 17.9713 10.8728 17.9697 11.8713C17.9681 12.8698 17.5817 13.8292 16.891 14.5502L15.4411 16.3732C16.2435 18.3228 17.4231 20.0946 18.9124 21.5869C20.4016 23.0791 22.171 24.2624 24.119 25.0687L25.9532 23.6101C26.6743 22.9198 27.6335 22.5339 28.6317 22.5325C29.6299 22.5311 30.5902 22.9143 31.3132 23.6026C31.3132 23.6026 34.3256 25.9214 34.3644 25.9602ZM32.6416 27.7807C32.6416 27.7807 29.6455 25.4756 29.6067 25.4368C29.3487 25.1811 29.0002 25.0376 28.6369 25.0376C28.2737 25.0376 27.9252 25.1811 27.6672 25.4368C27.6334 25.4719 25.1081 27.4839 25.1081 27.4839C24.9379 27.6194 24.7354 27.7082 24.5204 27.7416C24.3055 27.7749 24.0856 27.7517 23.8823 27.6742C21.3588 26.7347 19.0667 25.2637 17.1612 23.361C15.2557 21.4583 13.7814 19.1683 12.8381 16.6461C12.7545 16.4401 12.7272 16.2155 12.7591 15.9955C12.791 15.7754 12.8809 15.5679 13.0196 15.3941C13.0196 15.3941 15.0317 12.8674 15.0655 12.8349C15.3212 12.5769 15.4647 12.2284 15.4647 11.8651C15.4647 11.5019 15.3212 11.1534 15.0655 10.8954C15.0267 10.8579 12.7217 7.85919 12.7217 7.85919C12.4599 7.62444 12.1182 7.49872 11.7667 7.5078C11.4152 7.51688 11.0804 7.66007 10.8311 7.90802L9.39124 9.16008C2.32724 17.654 23.9512 38.0788 31.3946 31.0448L32.5352 29.7301C32.8025 29.4825 32.963 29.1407 32.9829 28.7769C33.0027 28.4131 32.8803 28.0559 32.6416 27.7807Z" fill="white"/>
</svg>
